<svg width="1889" height="269" viewBox="0 0 1889 269" fill="none" xmlns="http://www.w3.org/2000/svg">
<path d="M128.868 269C103.248 269 80.7411 263.557 61.3492 252.67C42.0747 241.784 27.0312 226.332 16.2187 206.315C5.40625 186.298 0 162.535 0 135.027C0 106.113 5.75883 81.6482 17.2765 61.6312C28.7941 41.4972 44.249 26.2211 63.6409 15.8029C83.0329 5.26762 104.54 0 128.163 0C143.794 0 158.368 2.22411 171.883 6.67232C185.399 11.0035 197.387 17.2661 207.847 25.4602C218.307 33.5372 226.71 43.136 233.056 54.2565C239.52 65.3771 243.399 77.6097 244.691 90.9543H172.236C171.178 86.389 169.474 82.3505 167.124 78.8388C164.773 75.21 161.776 72.1664 158.133 69.7082C154.607 67.25 150.493 65.3771 145.792 64.0894C141.091 62.8018 135.803 62.158 129.926 62.158C118.056 62.158 107.89 64.9674 99.4279 70.5862C90.966 76.205 84.502 84.399 80.036 95.1684C75.6875 105.938 73.5132 118.931 73.5132 134.149C73.5132 149.483 75.6287 162.594 79.8597 173.48C84.2082 184.25 90.5546 192.502 98.8991 198.238C107.243 203.974 117.586 206.842 129.926 206.842C140.621 206.842 149.553 205.32 156.722 202.277C163.892 199.116 169.239 194.668 172.765 188.932C176.408 183.196 178.23 176.465 178.23 168.74L191.275 170.144H130.631V119.224H247.688V155.746C247.688 179.392 242.635 199.701 232.527 216.675C222.42 233.531 208.376 246.466 190.394 255.48C172.53 264.493 152.021 269 128.868 269Z" fill="#101010"/>
<path d="M389.779 268.649C367.213 268.649 347.41 264.727 330.369 256.884C313.445 248.924 300.223 237.687 290.703 223.172C281.301 208.539 276.6 191.273 276.6 171.373V3.68734H347.822V165.403C347.822 173.597 349.643 180.855 353.286 187.176C356.93 193.38 361.866 198.297 368.095 201.926C374.441 205.437 381.728 207.193 389.955 207.193C398.064 207.193 405.292 205.437 411.639 201.926C417.985 198.297 422.98 193.38 426.623 187.176C430.267 180.855 432.088 173.597 432.088 165.403V3.68734H503.31V171.373C503.31 191.273 498.55 208.539 489.03 223.172C479.628 237.687 466.406 248.924 449.365 256.884C432.323 264.727 412.461 268.649 389.779 268.649Z" fill="#101010"/>
<path d="M643.285 268.649C620.249 268.649 600.211 265.254 583.17 258.465C566.246 251.675 553.141 241.316 543.857 227.386C534.69 213.456 530.047 195.78 529.93 174.358H597.978C598.448 182.084 600.505 188.698 604.148 194.2C607.791 199.584 612.845 203.681 619.309 206.491C625.891 209.183 633.706 210.529 642.756 210.529C650.395 210.529 656.859 209.593 662.148 207.72C667.436 205.847 671.491 203.272 674.312 199.994C677.132 196.599 678.543 192.678 678.543 188.23C678.543 184.25 677.191 180.738 674.488 177.695C671.903 174.651 667.613 171.9 661.619 169.442C655.743 166.984 647.927 164.818 638.172 162.945L611.905 157.502C588.164 152.586 569.595 144.099 556.197 132.042C542.917 119.868 536.276 103.655 536.276 83.404C536.276 66.7818 540.801 52.208 549.851 39.6828C558.9 27.1575 571.417 17.4417 587.401 10.5352C603.384 3.51175 621.836 0 642.756 0C664.146 0 682.597 3.51175 698.111 10.5352C713.625 17.5587 725.612 27.5087 734.074 40.3851C742.536 53.2615 746.885 68.3621 747.12 85.6867H678.895C678.308 77.0244 675.017 70.2935 669.023 65.4941C663.029 60.5777 654.332 58.1194 642.932 58.1194C635.763 58.1194 629.769 58.9974 624.95 60.7533C620.132 62.5091 616.488 64.9674 614.02 68.1279C611.67 71.1714 610.495 74.6832 610.495 78.6632C610.495 82.8773 611.729 86.5061 614.197 89.5496C616.665 92.5931 620.602 95.2269 626.008 97.451C631.414 99.6751 638.29 101.665 646.634 103.421L668.142 107.811C682.715 110.854 695.232 114.834 705.692 119.751C716.269 124.55 724.907 130.286 731.606 136.958C738.305 143.513 743.183 151.005 746.238 159.433C749.412 167.745 750.998 176.934 750.998 187.001C750.998 204.442 746.708 219.25 738.129 231.424C729.55 243.598 717.209 252.846 701.108 259.167C685.124 265.488 665.85 268.649 643.285 268.649Z" fill="#101010"/>
<path d="M777.971 265.313V3.68734H970.48V61.9824H849.721V105.177H960.608V161.716H849.721V207.018H969.951V265.313H777.971Z" fill="#101010"/>
<path d="M1072.55 3.68734V265.313H1000.8V3.68734H1072.55Z" fill="#101010"/>
<path d="M1105.17 265.313V3.68734H1182.21L1245.14 106.406C1249.96 114.366 1254.66 122.677 1259.24 131.339C1263.83 139.885 1268.35 149.308 1272.82 159.609C1277.4 169.91 1281.93 181.44 1286.39 194.2L1279.52 198.765C1278.93 189.283 1278.22 178.338 1277.4 165.93C1276.7 153.522 1276.05 141.348 1275.46 129.408C1274.88 117.468 1274.58 107.518 1274.58 99.5581V3.68734H1347.92V265.313H1271.06L1212.35 169.793C1206.47 160.077 1201.01 150.596 1195.96 141.348C1190.9 131.983 1185.91 121.975 1180.97 111.322C1176.04 100.67 1170.57 88.6717 1164.58 75.327L1173.57 74.4491C1174.51 86.7402 1175.33 98.9728 1176.04 111.147C1176.86 123.204 1177.45 134.324 1177.8 144.508C1178.27 154.693 1178.5 163.121 1178.5 169.793V265.313H1105.17Z" fill="#101010"/>
<path d="M1503.05 269C1479.2 269 1457.57 263.849 1438.18 253.548C1418.9 243.13 1403.63 227.971 1392.34 208.071C1381.06 188.054 1375.42 163.589 1375.42 134.676C1375.42 105.528 1381.06 80.9458 1392.34 60.9288C1403.63 40.9119 1418.9 25.7528 1438.18 15.4517C1457.57 5.15057 1479.2 0 1503.05 0C1526.91 0 1548.48 5.15057 1567.75 15.4517C1587.03 25.7528 1602.31 40.9119 1613.59 60.9288C1624.99 80.9458 1630.69 105.528 1630.69 134.676C1630.69 163.706 1624.99 188.23 1613.59 208.247C1602.31 228.147 1587.03 243.247 1567.75 253.548C1548.48 263.849 1526.91 269 1503.05 269ZM1503.05 206.842C1514.92 206.842 1524.86 204.091 1532.85 198.589C1540.84 192.971 1546.89 184.777 1551.01 174.007C1555.12 163.238 1557.18 150.127 1557.18 134.676C1557.18 119.107 1555.12 105.938 1551.01 95.1684C1546.89 84.282 1540.84 76.0879 1532.85 70.5862C1524.86 64.9674 1514.92 62.158 1503.05 62.158C1491.42 62.158 1481.55 64.9674 1473.44 70.5862C1465.45 76.0879 1459.33 84.282 1455.1 95.1684C1450.99 105.938 1448.93 119.107 1448.93 134.676C1448.93 150.127 1450.99 163.238 1455.1 174.007C1459.33 184.777 1465.45 192.971 1473.44 198.589C1481.55 204.091 1491.42 206.842 1503.05 206.842Z" fill="#101010"/>
<path d="M1719.36 265.313L1631.22 3.68734H1711.96L1742.46 105.177C1749.04 127.184 1755.15 149.483 1760.79 172.076C1766.43 194.668 1771.9 217.553 1777.19 240.73H1760.09C1765.26 217.553 1770.49 194.668 1775.78 172.076C1781.06 149.483 1786.88 127.184 1793.23 105.177L1822.32 3.68734H1902L1816.68 265.313H1719.36Z" fill="#101010"/>
</svg>
