<svg width="24" height="24" fill="none" xmlns="http://www.w3.org/2000/svg"><path fill-rule="evenodd" clip-rule="evenodd" d="m4.638 5.642 12.829-2.637c3.115-.64 5.668 2.471 4.432 5.402l-5.09 12.07c-1.495 3.522-6.635 3.085-7.487-.661l-.803-3.532A2.448 2.448 0 0 0 7.13 14.59l-3.307-1.477C.32 11.551.877 6.413 4.638 5.642Zm.301 1.47c-2.33.477-2.679 3.662-.505 4.633l3.308 1.477a3.948 3.948 0 0 1 2.24 2.729l.803 3.532c.526 2.316 3.712 2.6 4.643.408l5.09-12.067c.766-1.818-.817-3.747-2.75-3.35L4.94 7.113Z" fill="#DEDEDE"/></svg>