<svg width="123" height="15" fill="none" xmlns="http://www.w3.org/2000/svg"><path d="M22.893 11.344c-.577.79-1.392 1.185-2.445 1.185-1.052 0-1.858-.395-2.435-1.185-.36-.51-.553-1.898-.577-2.959h-2.082v.423c0 1.45.452 3.157 1.357 4.096 1.011 1.046 2.257 1.569 3.738 1.569 1.481 0 2.73-.523 3.748-1.57.904-.938 1.356-2.132 1.356-3.583v-.935H23.47c-.024 1.077-.217 2.465-.578 2.959ZM17.432.5h-2.079v6.034h2.079V.5ZM25.551.5h-2.078v6.034h2.078V.5ZM29.723.5h-2.078v6.073h2.078V.5ZM29.718 8.425H27.64l.004 5.838h2.079l-.005-5.838ZM31.37.5l3.517 6.075h2.943L41.34.5 41.338.5H38.92l-2.556 4.4L33.807.5H31.37ZM34.315 8.425 30.95 14.22l.076.04h2.364l2.97-5.14 2.978 5.14h2.462l-3.388-5.834h-4.096ZM44.977.5h-.69v13.759h.69V.5Z" fill="#fff"/><path fill-rule="evenodd" clip-rule="evenodd" d="M12.083 8.385H9.262v-1.85h6.12v1.85h-1.425c.054-.42.07-.846.046-1.274l-1.842-.013a5.64 5.64 0 0 1-.078 1.287Zm0 0h1.874A7.008 7.008 0 0 1 .344 9.668a6.994 6.994 0 0 1 3.65-8.488 7.013 7.013 0 0 1 8.896 2.518l-1.533.99a5.181 5.181 0 0 0-6.579-1.862A5.18 5.18 0 0 0 2.08 9.103a5.178 5.178 0 0 0 5.881 3.485 5.183 5.183 0 0 0 3.123-1.893c.515-.655.85-1.47.999-2.31Z" fill="#fff"/><path d="m14.003 7.111-1.842-.013a5.64 5.64 0 0 1-.078 1.287h1.874c.054-.42.07-.846.046-1.274Z" fill="#fff"/><path d="M53.224 14.067c-.856 0-1.579-.184-2.168-.55a3.518 3.518 0 0 1-1.337-1.536c-.303-.652-.454-1.406-.454-2.26 0-.853.15-1.606.453-2.258a3.482 3.482 0 0 1 1.338-1.53c.59-.37 1.312-.556 2.168-.556.999 0 1.815.25 2.448.747.633.495 1.067 1.159 1.302 1.993l-.896.226c-.183-.66-.512-1.184-.985-1.57-.474-.386-1.097-.58-1.87-.58-.672 0-1.231.15-1.677.447a2.748 2.748 0 0 0-1.01 1.245c-.222.53-.338 1.142-.346 1.837-.004.695.106 1.307.329 1.836.227.53.565.944 1.015 1.246.453.297 1.017.446 1.69.446.772 0 1.395-.193 1.869-.58.473-.39.802-.913.985-1.57l.896.226c-.235.835-.67 1.5-1.302 2-.633.493-1.45.74-2.448.74ZM62.19 14.067c-.856 0-1.578-.184-2.167-.55a3.518 3.518 0 0 1-1.338-1.536c-.302-.652-.454-1.406-.454-2.26 0-.853.152-1.606.454-2.258a3.482 3.482 0 0 1 1.338-1.53c.589-.37 1.311-.556 2.167-.556.86 0 1.583.185 2.168.556.59.367 1.035.877 1.337 1.53.307.652.46 1.405.46 2.259 0 .853-.153 1.607-.46 2.26a3.518 3.518 0 0 1-1.337 1.534c-.585.367-1.308.55-2.168.55Zm0-.817c.673 0 1.234-.149 1.684-.446.45-.298.786-.71 1.01-1.24.226-.533.34-1.147.34-1.842 0-.695-.114-1.307-.34-1.837a2.703 2.703 0 0 0-1.01-1.24c-.45-.297-1.01-.447-1.684-.451-.672 0-1.232.149-1.678.446a2.749 2.749 0 0 0-1.009 1.245c-.223.53-.336 1.142-.34 1.837-.004.695.105 1.307.328 1.836a2.78 2.78 0 0 0 1.015 1.24c.45.297 1.012.448 1.684.452ZM67.77 13.893V5.55h.805l3.38 7.015 3.362-7.015h.818v8.336h-.836V7.451l-3.063 6.442h-.568L68.611 7.45v6.442h-.842ZM78.229 13.893V5.55h.806l3.38 7.015 3.361-7.015h.818v8.336h-.836V7.451l-3.063 6.442h-.567L79.07 7.45v6.442h-.842ZM92.044 14.067c-.657 0-1.238-.132-1.744-.394a2.939 2.939 0 0 1-1.182-1.113c-.286-.478-.43-1.038-.43-1.68V5.557l.884-.006v5.22c0 .432.076.807.227 1.123.151.313.348.572.591.777.247.2.516.349.806.446.29.096.573.144.848.144a2.7 2.7 0 0 0 .854-.144 2.47 2.47 0 0 0 .8-.447c.243-.204.44-.463.591-.776.151-.316.227-.691.227-1.124V5.55h.884v5.33c0 .642-.143 1.202-.43 1.68a2.983 2.983 0 0 1-1.188 1.113c-.502.262-1.081.394-1.738.394ZM97.492 13.893V5.55h.883l4.736 6.836V5.55h.883v8.342h-.883L98.375 7.05v6.842h-.883ZM106.205 13.893V5.55h.877v8.342h-.877ZM111.577 13.893V6.368h-3.003V5.55h6.885v.817h-3.004v7.525h-.878ZM119.244 13.893V10.4l-2.884-4.85h1.015l2.311 3.876 2.299-3.875H123l-2.872 4.849v3.493h-.884Z" fill="#B6F09C"/></svg>