<svg width="71" height="24" viewBox="0 0 71 24" fill="none" xmlns="http://www.w3.org/2000/svg">
<path d="M10.5721 22.5C7.2807 22.5 4.4375 20.5368 4.4375 16.5576H7.7093C7.7093 18.4348 9.05729 19.3999 10.5787 19.3999C12.1001 19.3999 13.3924 18.5208 13.3924 16.3296V1.97593H16.6773V16.627C16.6773 20.7946 13.7785 22.5 10.5721 22.5ZM21.1401 5.68084C20.5887 5.67736 20.0609 5.45434 19.6713 5.06018C19.2817 4.66602 19.0618 4.13254 19.0592 3.57555C19.0686 3.02348 19.2917 2.49708 19.6806 2.10913C20.0696 1.72117 20.5935 1.50252 21.1401 1.50001C21.4101 1.49914 21.6777 1.55223 21.9274 1.65622C22.1771 1.76022 22.4039 1.91307 22.5949 2.10598C22.7858 2.29888 22.9372 2.52803 23.0401 2.78025C23.1431 3.03246 23.1956 3.30274 23.1947 3.57555C23.1987 3.85061 23.1484 4.12371 23.0469 4.37897C22.9454 4.63423 22.7946 4.86656 22.6035 5.06245C22.4123 5.25834 22.1844 5.41389 21.9332 5.52005C21.682 5.62621 21.4124 5.68087 21.1401 5.68084ZM19.5925 7.94477H22.6876V22.1563H19.5925V7.94477ZM30.7624 22.2984C28.0599 22.2984 25.9496 20.7946 25.9496 17.5822V3.99529H29.0447V7.96129H32.4507V10.7474H29.0447V17.0699C29.0447 18.8314 29.8071 19.4561 31.4102 19.4561C31.9735 19.4666 32.5343 19.3806 33.0691 19.2016V21.9877C32.3208 22.2115 31.5426 22.3163 30.7624 22.2984ZM39.3182 22.2984C36.6157 22.2984 34.5054 20.7946 34.5054 17.5822V3.99529H37.6005V7.96129H41.6248V10.7474H37.6005V17.0699C37.6005 18.8314 38.3596 19.4561 39.966 19.4561C40.5292 19.4664 41.0901 19.3804 41.6248 19.2016V21.9877C40.8765 22.2115 40.0984 22.3163 39.3182 22.2984ZM49.7389 7.66054C53.4229 7.66054 56.5181 10.136 56.5181 14.7101C56.5181 15.0241 56.5181 15.2786 56.4919 15.7347H45.4332C45.5739 18.0647 47.4323 19.5982 49.7651 19.5982C51.7281 19.5982 53.0598 18.6893 53.7894 17.44L56.1549 19.1454C54.8887 21.1615 52.6933 22.4504 49.7389 22.4504C45.4626 22.4504 42.3937 19.3834 42.3937 15.0604C42.3904 10.873 45.4626 7.66054 49.7389 7.66054ZM45.5739 13.4608H53.3968C53.0696 11.415 51.4337 10.3045 49.6244 10.3045C47.8151 10.3045 45.9894 11.3555 45.5739 13.4608ZM58.5433 7.94477H61.6384V10.4764C61.9096 9.69808 62.4122 9.02344 63.0775 8.54481C63.7429 8.06618 64.5384 7.80697 65.3552 7.80265C65.7605 7.7999 66.165 7.83866 66.5625 7.91833V11.1308C66.0642 10.9594 65.5413 10.8723 65.0149 10.873C63.2449 10.873 61.6384 12.3801 61.6384 15.2224V22.1629H58.5433V7.94477Z" fill="white"/>
</svg>
