<svg width="32" height="32" viewBox="0 0 32 32" fill="none" xmlns="http://www.w3.org/2000/svg">
<path fill-rule="evenodd" clip-rule="evenodd" d="M6 25.6693V12.2222C6 6.57662 10.4771 2 16 2C21.5229 2 26 6.57662 26 12.2222C26 17.7935 21.6398 22.3238 16.2174 22.442V22.4444C14.6565 22.4444 13.3913 21.1511 13.3913 19.5556C13.3913 17.9749 14.6331 16.6908 16.1739 16.667V16.6632C18.4945 16.5699 20.3478 14.6172 20.3478 12.2222C20.3478 9.76764 18.4012 7.77778 16 7.77778C13.5988 7.77778 11.6522 9.76764 11.6522 12.2222V27.1111C11.6522 28.7067 10.387 30 8.82609 30C8.24469 30.0009 7.67728 29.8177 7.20191 29.4756C8.01478 29.2327 8.6087 28.4651 8.6087 27.5556C8.6087 26.451 7.7327 25.5556 6.65217 25.5556C6.42348 25.5556 6.204 25.5956 6 25.6693ZM16.2174 21.5556C17.2979 21.5556 18.1739 20.6601 18.1739 19.5556C18.1739 18.451 17.2979 17.5556 16.2174 17.5556C15.1369 17.5556 14.2609 18.451 14.2609 19.5556C14.2609 20.6601 15.1369 21.5556 16.2174 21.5556Z" fill="url(#paint0_linear_3144_1665)"/>
<defs>
<linearGradient id="paint0_linear_3144_1665" x1="2306" y1="2" x2="2306" y2="5601.7" gradientUnits="userSpaceOnUse">
<stop stop-color="#D378E5"/>
<stop offset="1" stop-color="#7526C2"/>
</linearGradient>
</defs>
</svg>
