<svg width="32" height="32" viewBox="0 0 32 32" fill="none" xmlns="http://www.w3.org/2000/svg">
<path fill-rule="evenodd" clip-rule="evenodd" d="M16.0012 25.3623L16.0751 29.8951C15.3986 29.8954 14.7486 29.6322 14.2629 29.1613L13.909 28.7399L5.31007 18.5145L2.38523 15.0334C2.37755 15.0293 2.37139 15.0228 2.36767 15.0149L2.32147 14.9613L2.31223 14.9493C2.25503 14.8739 2.20926 14.7904 2.17638 14.7016C2.13264 14.5927 2.10855 14.477 2.10522 14.3597V14.2895C2.10522 14.2673 2.10707 14.2442 2.11169 14.222C2.13192 13.9943 2.22828 13.7801 2.38523 13.6139C2.57283 13.4106 2.84544 13.2812 3.14486 13.2812H6.03273L16.0003 25.3641L16.0021 25.3623H16.0012Z" fill="#FCD1CA"/>
<path fill-rule="evenodd" clip-rule="evenodd" d="M15.9996 19.9271V25.5448L2.36509 9.27477C2.28321 9.18307 2.2187 9.07722 2.17473 8.96242C2.13155 8.85245 2.10779 8.73582 2.10449 8.61772V8.54841C2.11189 8.28781 2.21631 8.05401 2.3845 7.87565C2.57117 7.66957 2.84379 7.54297 3.14413 7.54297H5.72981L15.9996 19.9271Z" fill="#FF9D8D"/>
<path fill-rule="evenodd" clip-rule="evenodd" d="M3.13839 2.10641C2.84082 2.10641 2.56728 2.23209 2.38246 2.43725C2.21612 2.61191 2.11262 2.84848 2.10522 3.10631V3.1747C2.108 3.2976 2.13202 3.41219 2.17546 3.51662C2.17638 3.52679 2.181 3.5351 2.1847 3.54434C2.22983 3.65302 2.29433 3.7526 2.37507 3.83821L2.38985 3.85485L15.9994 19.9271V29.8956C16.672 29.8971 17.3186 29.6358 17.8014 29.1674C17.8042 29.1674 17.8042 29.1674 17.8042 29.1656L29.6329 15.1226C29.6477 15.1079 29.6606 15.0912 29.6736 15.0746C29.7364 14.997 29.7863 14.9092 29.8233 14.8131C29.8695 14.6985 29.8935 14.5728 29.8935 14.4388V3.13866C29.8947 2.87674 29.7947 2.62448 29.6144 2.43448C29.5181 2.32995 29.4011 2.24669 29.2707 2.19004C29.1404 2.13339 28.9997 2.10459 28.8576 2.10549H3.13931L3.13839 2.10641Z" fill="#FF6661"/>
</svg>
