<svg width="32" height="32" viewBox="0 0 32 32" fill="none" xmlns="http://www.w3.org/2000/svg">
<path d="M2.58536 17.4132C1.80488 16.6327 1.80488 15.3673 2.58536 14.5868L14.5868 2.58536C15.3673 1.80488 16.6327 1.80488 17.4132 2.58536L29.4146 14.5868C30.1951 15.3673 30.1951 16.6327 29.4146 17.4132L17.4132 29.4146C16.6327 30.1951 15.3673 30.1951 14.5868 29.4146L2.58536 17.4132Z" fill="#EE513B"/>
<path d="M12.1492 5.0625L10.9338 6.27784L14.0727 9.41674C13.9458 9.68917 13.8749 9.99298 13.8749 10.3134C13.8749 11.223 14.4464 11.9991 15.2499 12.3022V19.9807C14.4464 20.2839 13.8749 21.06 13.8749 21.9696C13.8749 23.1432 14.8263 24.0946 15.9999 24.0946C17.1735 24.0946 18.1249 23.1432 18.1249 21.9696C18.1249 21.145 17.6551 20.43 16.9686 20.0778V12.3126L19.9692 15.3132C19.8484 15.5801 19.7811 15.8764 19.7811 16.1884C19.7811 17.362 20.7325 18.3134 21.9061 18.3134C23.0797 18.3134 24.0311 17.362 24.0311 16.1884C24.0311 15.0148 23.0797 14.0634 21.9061 14.0634C21.6781 14.0634 21.4584 14.0993 21.2525 14.1658L18.03 10.9433C18.0917 10.7442 18.1249 10.5327 18.1249 10.3134C18.1249 9.13975 17.1735 8.18836 15.9999 8.18836C15.7806 8.18836 15.569 8.22158 15.37 8.28328L12.1492 5.0625Z" fill="white"/>
</svg>
