<svg width="32" height="32" viewBox="0 0 32 32" fill="none" xmlns="http://www.w3.org/2000/svg">
<path d="M16.0083 29.6645L21.5283 12.6758H10.4883L16.0083 29.6645Z" fill="#E24329"/>
<path d="M16.0086 29.6645L10.4886 12.6758H2.75244L16.0086 29.6645Z" fill="#FC6D26"/>
<path d="M2.75225 12.6758L1.07482 17.8385C0.921818 18.3094 1.08939 18.8252 1.48996 19.1162L16.0084 29.6645L2.75225 12.6758Z" fill="#FCA326"/>
<path d="M2.75269 12.6758H10.4888L7.16411 2.4437C6.99311 1.91713 6.24826 1.91727 6.07726 2.4437L2.75269 12.6758Z" fill="#E24329"/>
<path d="M16.0095 29.6645L21.5295 12.6758H29.2657L16.0095 29.6645Z" fill="#FC6D26"/>
<path d="M29.2657 12.6758L30.9431 17.8385C31.0961 18.3094 30.9285 18.8252 30.528 19.1162L16.0095 29.6645L29.2657 12.6758Z" fill="#FCA326"/>
<path d="M29.2652 12.6758H21.5291L24.8538 2.4437C25.0248 1.91713 25.7696 1.91727 25.9406 2.4437L29.2652 12.6758Z" fill="#E24329"/>
</svg>
