<svg width="74" height="54" viewBox="0 0 74 54" fill="none" xmlns="http://www.w3.org/2000/svg">
<path d="M0 20C0 19.4477 0.447715 19 1 19H73C73.5523 19 74 19.4477 74 20C74 20.5523 73.5523 21 73 21H0.999999C0.447715 21 0 20.5523 0 20Z" fill="#DEDEDE"/>
<path d="M0 27C0 26.4477 0.447715 26 1 26H73C73.5523 26 74 26.4477 74 27C74 27.5523 73.5523 28 73 28H0.999999C0.447715 28 0 27.5523 0 27Z" fill="#DEDEDE"/>
<path d="M0 34C0 33.4477 0.447715 33 1 33H73C73.5523 33 74 33.4477 74 34C74 34.5523 73.5523 35 73 35H0.999999C0.447715 35 0 34.5523 0 34Z" fill="#DEDEDE"/>
</svg>
