<svg width="53" height="54" viewBox="0 0 53 54" fill="none" xmlns="http://www.w3.org/2000/svg">
<path d="M0.292893 0.999898C0.683418 0.609373 1.31658 0.609373 1.70711 0.999898L52.6188 51.9116C53.0093 52.3021 53.0093 52.9353 52.6188 53.3258C52.2283 53.7163 51.5951 53.7163 51.2046 53.3258L0.292893 2.41411C-0.0976313 2.02359 -0.0976309 1.39042 0.292893 0.999898Z" fill="#DEDEDE"/>
<path d="M0.293044 52.9999C-0.0974798 52.6094 -0.0974798 51.9762 0.293044 51.5857L51.2047 0.673997C51.5953 0.283472 52.2284 0.283473 52.6189 0.673997C53.0095 1.06452 53.0095 1.69769 52.6189 2.08821L1.70726 52.9999C1.31673 53.3904 0.683569 53.3904 0.293044 52.9999Z" fill="#DEDEDE"/>
</svg>
