<svg width="36" height="36" viewBox="0 0 36 36" fill="none" xmlns="http://www.w3.org/2000/svg">
<path d="M15.975 28.665V7.335C15.975 5.31 15.12 4.5 12.96 4.5H7.515C5.355 4.5 4.5 5.31 4.5 7.335V28.665C4.5 30.69 5.355 31.5 7.515 31.5H12.96C15.12 31.5 15.975 30.69 15.975 28.665Z" stroke="white" stroke-width="2.25" stroke-linecap="round" stroke-linejoin="round"/>
<path d="M31.5004 28.665V7.335C31.5004 5.31 30.6454 4.5 28.4854 4.5H23.0404C20.8954 4.5 20.0254 5.31 20.0254 7.335V28.665C20.0254 30.69 20.8804 31.5 23.0404 31.5H28.4854C30.6454 31.5 31.5004 30.69 31.5004 28.665Z" stroke="white" stroke-width="2.25" stroke-linecap="round" stroke-linejoin="round"/>
</svg>
