<svg width="109" height="24" viewBox="0 0 109 24" fill="none" xmlns="http://www.w3.org/2000/svg">
<path fill-rule="evenodd" clip-rule="evenodd" d="M15.6053 16.1017C16.8061 16.1017 22.5784 18.637 21.9381 12.9473C21.7189 11.0019 20.5555 8.94447 19.0059 7.80116C18.6422 7.533 17.7379 6.90406 17.2795 6.79924C17.3019 6.54083 18.545 4.59306 18.7717 4.22252L19.1678 3.55701C19.397 3.23035 19.6661 3.52044 20.3138 2.9817C20.4982 2.82812 20.7598 2.4137 20.832 2.14311C21.0811 1.23626 20.5206 0.526871 20.0273 0.246528C18.4877 -0.623754 16.7862 0.975419 17.5784 2.46733C17.7777 2.84275 17.6806 2.82568 17.4314 3.43756C17.282 3.80079 17.1574 4.07382 17.0129 4.43217L16.2008 6.38725C15.4135 6.01671 13.4454 6.04109 12.6059 6.20442C11.9083 6.34094 11.0015 6.63347 10.4036 6.97475C8.39813 8.11319 7.4963 9.19068 6.69411 11.1848C6.58948 11.4456 6.52471 11.6479 6.39516 11.8868C6.03642 11.7918 4.10819 10.0293 4.62139 9.21506C4.7609 8.99322 5.22178 8.78601 5.49831 8.55199C4.51426 8.55199 3.14158 8.62512 3.16151 9.78062C3.18144 10.9215 5.0723 12.3866 5.9866 13.0472C6.98808 13.7712 8.6647 14.7244 9.8032 15.2802L12.3493 16.4162C14.9202 17.4133 16.9382 18.1812 19.7433 18.776C20.8021 19.0002 25.7796 19.8047 24.9052 17.4108C24.8255 17.1939 24.6187 16.8184 24.4867 16.6502C24.3895 16.5235 24.3198 16.4479 24.2226 16.3236C24.1155 16.1895 24.0407 16.0896 23.8539 16.0408C23.9012 16.2334 24.676 17.6863 23.0692 17.8472C21.3402 18.0203 17.5809 17.0525 15.8595 16.2578L15.6029 16.0993L15.6053 16.1017Z" fill="#E6E6E6" fill-opacity="0.68"/>
<path fill-rule="evenodd" clip-rule="evenodd" d="M63.9755 13.7614C63.9755 12.2378 64.5435 11.253 65.8714 10.702C67.1045 10.1901 68.5096 10.4339 69.5186 11.2627C71.0333 12.506 71.0009 16.1699 68.0064 16.772C67.2441 16.9256 66.6088 16.8671 65.9212 16.5965C64.8026 16.1577 63.9755 15.1412 63.9755 13.7614ZM60.5675 13.1763C60.5675 14.6024 60.56 15.2314 61.1131 16.5624C61.9701 18.6223 64.5759 20.1971 66.8455 20.1971C68.1035 20.1971 69.1374 20.1557 70.2535 19.612C71.7433 18.888 72.7273 18.086 73.4622 16.5502C74.3367 14.7195 74.2295 11.6406 72.969 9.87562L71.8504 8.62992C71.7483 8.5446 71.7507 8.5641 71.6461 8.47878C70.119 7.21602 68.9855 7.09169 66.9053 7.09169C66.0283 7.09169 64.9845 7.3696 64.3741 7.65725C63.6841 7.98147 63.0114 8.35445 62.4658 8.89076C61.2974 10.0389 60.5675 11.4212 60.5675 13.1763Z" fill="#E6E6E6" fill-opacity="0.68"/>
<path fill-rule="evenodd" clip-rule="evenodd" d="M74.379 10.8946V20.0801H77.8468C77.9838 20.0801 78.0262 20.0387 78.0262 19.9046V10.6021H80.7765C82.5304 10.6021 82.4806 12.957 81.0331 13.3104C80.642 13.4055 79.3042 13.3519 78.7437 13.3519L85.6644 20.1532C85.6793 18.9685 85.6744 17.7984 85.6793 16.6282C85.6843 15.8603 85.764 16.0968 85.0964 15.4435C84.8423 15.1948 84.359 14.778 84.1846 14.522C84.5134 14.4367 85.1088 13.6761 85.2807 13.3714C86.5114 11.1945 85.7989 7.26723 81.6734 7.26723H78.086C77.8767 7.26723 75.5873 9.62455 75.2609 9.9439C75.0965 10.1048 74.379 10.6972 74.379 10.8946Z" fill="#E6E6E6" fill-opacity="0.68"/>
<path fill-rule="evenodd" clip-rule="evenodd" d="M27.5632 20.0802C27.8322 20.0095 29.4466 18.325 29.6708 18.1056L31.7634 16.0579C32.0923 15.7361 35.6722 12.1794 35.9338 12.0063V15.3412C33.0041 15.3412 33.6967 15.1023 32.6902 16.0871L31.4944 17.2573C31.3225 17.4109 31.2203 17.462 31.0435 17.6351C30.7993 17.8765 30.4281 18.1812 30.2512 18.4396H35.9313V20.0778H39.5187V7.32583H36.4694C36.2651 7.32583 33.886 9.76603 33.7041 9.94398L27.8746 15.6483C27.3838 16.1188 27.5607 16.0993 27.5607 17.3889V20.0802H27.5632Z" fill="#E6E6E6" fill-opacity="0.68"/>
<path fill-rule="evenodd" clip-rule="evenodd" d="M86.3968 10.836V20.08H94.5282C94.6652 20.08 94.7076 20.0386 94.7076 19.9045V16.9792C94.7076 16.8451 94.6652 16.8037 94.5282 16.8037H89.9842V15.341H94.5282C94.6652 15.341 94.7076 15.2996 94.7076 15.1655V12.2987C94.7076 12.1646 94.6652 12.1232 94.5282 12.1232H89.9842V10.6605H94.5282C94.7699 10.6605 96.8202 8.44703 97.144 8.13012C97.3907 7.88878 97.8242 7.52068 97.9961 7.26715C95.4699 7.26715 92.9263 7.2964 90.4002 7.26715C89.7923 7.25983 89.9742 7.24765 89.2218 7.98629C88.888 8.31295 86.3968 10.6337 86.3968 10.8385V10.836Z" fill="#E6E6E6" fill-opacity="0.68"/>
<path fill-rule="evenodd" clip-rule="evenodd" d="M95.9035 10.485L98.4296 12.9861C98.2353 13.2616 96.3469 15.046 95.9458 15.4385C95.7814 15.5994 95.7864 15.5677 95.7814 15.8627L95.7864 20.197L100.794 15.3264C100.898 15.3971 105.408 19.9581 105.771 20.197V14.1099C105.779 13.6151 105.794 13.754 105.338 13.3079C105.024 13.0007 104.304 12.3669 104.097 12.0646C104.399 11.8672 105.007 11.2041 105.308 10.9091C105.896 10.3338 108.716 7.74004 109 7.32562H104.752C104.12 7.31587 104.301 7.3305 103.604 8.01307L101.706 9.78289L99.2094 7.311C98.6787 7.66203 98.1007 8.4665 97.5552 8.88092C97.2612 9.10275 96.0803 10.2314 95.906 10.485H95.9035Z" fill="#E6E6E6" fill-opacity="0.68"/>
<path fill-rule="evenodd" clip-rule="evenodd" d="M40.6574 10.485L43.1836 12.9861C42.9893 13.2616 41.1009 15.046 40.6973 15.4385C40.5329 15.5994 40.5379 15.5677 40.5329 15.8627L40.5379 20.197L45.5453 15.3264L48.0266 17.7836C48.4102 18.159 50.2712 20.0337 50.5228 20.197V14.1099C50.5303 13.6151 50.5452 13.754 50.0894 13.3079C49.7755 13.0007 49.0555 12.3669 48.8487 12.0646C49.1501 11.8672 49.758 11.2041 50.0595 10.9091C50.6474 10.3338 53.4675 7.74004 53.7515 7.32562H49.5039C48.8711 7.31587 49.053 7.3305 48.3554 8.01307L47.0998 9.1832C46.8831 9.39528 46.7037 9.622 46.4571 9.78289L43.9609 7.311C43.4302 7.66203 42.8522 8.4665 42.3067 8.88092C42.0127 9.10275 40.8318 10.2314 40.6574 10.485Z" fill="#E6E6E6" fill-opacity="0.68"/>
<path fill-rule="evenodd" clip-rule="evenodd" d="M51.4196 10.6606H54.7081V20.0801H58.1759C58.3129 20.0801 58.3553 20.0387 58.3553 19.9046V10.6606C60.0369 10.6606 59.4415 10.607 60.6422 9.44661L62.8395 7.26725C60.3682 7.26725 57.8944 7.27944 55.4255 7.26725C54.6333 7.26237 54.8825 7.18436 54.1849 7.86694C53.881 8.16434 51.4919 10.3949 51.4196 10.6606Z" fill="#E6E6E6" fill-opacity="0.68"/>
<path fill-rule="evenodd" clip-rule="evenodd" d="M13.2734 21.4257C15.9988 21.4257 17.0751 19.9363 15.4283 18.7905C15.0272 18.5102 14.6262 18.3688 14.1727 18.1469C12.5734 17.3669 10.8793 16.9914 8.78913 15.8091C8.58734 15.6946 8.39053 15.5922 8.17379 15.4752L6.94062 14.8096C6.77869 14.717 6.46728 14.5098 6.28043 14.461C6.28043 15.8993 6.87834 17.1182 7.65561 18.264C8.84394 20.0191 11.0313 21.4233 13.2759 21.4233L13.2734 21.4257Z" fill="#E6E6E6" fill-opacity="0.68"/>
<path fill-rule="evenodd" clip-rule="evenodd" d="M1.07788e-05 18.8514C1.07788e-05 19.3048 -0.00497172 19.5193 0.199311 19.9435C0.520684 20.6163 1.27803 21.2502 2.09267 21.2502C2.90731 21.2502 3.3084 21.1429 3.87143 20.592C4.57147 19.9069 4.74337 18.8831 4.34477 18.0494C4.02339 17.3766 3.26605 16.7427 2.45141 16.7427C1.88589 16.7427 1.79123 16.7135 1.29547 16.9573C0.582965 17.3059 1.07788e-05 18.0128 1.07788e-05 18.8514Z" fill="#E6E6E6" fill-opacity="0.68"/>
<path d="M22.9593 20.6066H22.6006C21.742 20.6066 21.046 21.2877 21.046 22.1278V22.4788C21.046 23.319 21.742 24 22.6006 24H22.9593C23.8179 24 24.5139 23.319 24.5139 22.4788V22.1278C24.5139 21.2877 23.8179 20.6066 22.9593 20.6066Z" fill="#E6E6E6" fill-opacity="0.68"/>
<path d="M7.77278 3.93244H7.47383C6.97852 3.93244 6.57698 4.32535 6.57698 4.81004V5.10257C6.57698 5.58725 6.97852 5.98016 7.47383 5.98016H7.77278C8.2681 5.98016 8.66964 5.58725 8.66964 5.10257V4.81004C8.66964 4.32535 8.2681 3.93244 7.77278 3.93244Z" fill="#E6E6E6" fill-opacity="0.68"/>
</svg>
