<svg width="97" height="32" viewBox="0 0 97 32" fill="none" xmlns="http://www.w3.org/2000/svg">
<path d="M65.8704 7.43169C67.6917 7.43169 69.1867 8.03009 70.3556 9.25411C71.5517 10.4781 72.1497 12.1645 72.1497 14.3134V24.5407H67.8548V14.8574C67.8548 13.7422 67.5557 12.8989 66.9577 12.3277C66.3597 11.7293 65.5713 11.4301 64.5656 11.4301C63.451 11.4301 62.5812 11.7837 61.9016 12.4637C61.2492 13.1437 60.8958 14.1774 60.8958 15.5646V24.5679H56.6008V1.23002H60.8958V9.77091C61.9559 8.2205 63.6141 7.43169 65.8704 7.43169Z" fill="#E6E6E6" fill-opacity="0.68"/>
<path d="M83.1046 7.43175C84.9259 7.43175 86.421 8.03016 87.5899 9.25417C88.786 10.4782 89.384 12.1646 89.384 14.3134V24.5407H85.089V14.8574C85.089 13.7422 84.79 12.899 84.192 12.3278C83.5939 11.7294 82.8056 11.4302 81.7998 11.4302C80.6853 11.4302 79.8154 11.7838 79.1358 12.4638C78.4834 13.1438 78.1301 14.1774 78.1301 15.5646V24.5679H73.8351V7.89416H78.1301V9.77098C79.1902 8.22056 80.8212 7.43175 83.1046 7.43175Z" fill="#E6E6E6" fill-opacity="0.68"/>
<path d="M96.5878 20.2974H92.2928V24.5951H96.5878V20.2974Z" fill="#E6E6E6" fill-opacity="0.68"/>
<path d="M19.4138 16.4077C18.9789 17.4958 18.2449 18.3662 17.2663 19.019C16.1246 19.7806 14.6839 20.1614 12.9442 20.1614C10.5792 20.1614 8.70354 19.4542 7.26281 18.067C5.84927 16.6525 5.1425 14.8573 5.1425 12.7085C5.1425 10.5325 5.84927 8.73726 7.23563 7.29565C8.64917 5.85403 10.4433 5.14682 12.618 5.14682C13.9771 5.14682 15.2004 5.44603 16.2877 6.01723C17.4023 6.61564 18.2178 7.37725 18.7614 8.30206L22.6215 6.07163C21.6429 4.46682 20.2565 3.1612 18.4896 2.20919C16.7498 1.25718 14.7926 0.767578 12.6451 0.767578C9.24721 0.767578 6.39294 1.93719 4.08235 4.24922C1.79893 6.56124 0.657227 9.36287 0.657227 12.7085C0.657227 16.0269 1.79893 18.8286 4.10953 21.1406C6.44731 23.4254 9.38312 24.5678 12.917 24.5678C16.2334 24.5678 18.9245 23.5614 21.0177 21.5214C22.4584 20.107 23.4098 18.3934 23.8719 16.3805L19.4138 16.4077Z" fill="#E6E6E6" fill-opacity="0.68"/>
<path d="M19.4138 12.11H12.3189V16.4077L19.4138 16.4077L19.4138 12.11Z" fill="#E6E6E6" fill-opacity="0.68"/>
<path d="M47.2225 7.43175C49.4516 7.43175 51.3816 8.27496 52.9582 9.98858C54.5621 11.675 55.3504 13.7422 55.3504 16.2174C55.3504 18.6927 54.5621 20.7599 52.9582 22.4735C51.3816 24.1599 49.4787 25.0031 47.2225 25.0031C44.8847 25.0031 43.0906 24.1871 41.8402 22.5823V31.232H37.5452V7.89416H41.8402V9.85258C43.0906 8.24776 44.8847 7.43175 47.2225 7.43175ZM43.1178 19.6447C43.9877 20.5151 45.075 20.9503 46.407 20.9503C47.739 20.9503 48.8263 20.5151 49.6962 19.6447C50.5933 18.7471 51.0282 17.6319 51.0282 16.2446C51.0282 14.8574 50.5933 13.7422 49.6962 12.8718C48.8263 11.9742 47.739 11.539 46.407 11.539C45.075 11.539 43.9877 11.9742 43.1178 12.8718C42.2479 13.7422 41.813 14.8574 41.813 16.2446C41.813 17.6319 42.2479 18.7471 43.1178 19.6447Z" fill="#E6E6E6" fill-opacity="0.68"/>
<path d="M25.5029 24.595V7.97561H35.289V12.2189L29.9338 12.1917V24.595H25.5029Z" fill="#E6E6E6" fill-opacity="0.68"/>
</svg>
