<svg width="129" height="30" viewBox="0 0 129 30" fill="none" xmlns="http://www.w3.org/2000/svg">
<path fill-rule="evenodd" clip-rule="evenodd" d="M53.2041 13.9842V29.8378H56.5291V21.0806C57.2125 21.5902 61.5535 29.5547 62.3478 29.8567H64.9893C65.5619 29.7434 65.839 29.2716 65.8205 28.4412V13.5312H62.3478C62.3478 15.3997 62.1815 20.5144 62.4956 22.0809C62.1261 21.9488 62.2554 22.0809 61.6643 21.0806L59.3738 17.4758C57.2125 13.9842 57.5081 13.5879 53.6105 13.5879C53.2965 13.569 53.2041 13.6634 53.2041 13.9842Z" fill="#E6E6E6" fill-opacity="0.68"/>
<path fill-rule="evenodd" clip-rule="evenodd" d="M114.79 29.8001H118.097L117.986 21.024C118.78 21.5713 121.662 27.2333 123.952 29.8001H126.409C127.037 29.7057 127.277 29.4226 127.277 28.5356C127.296 26.6294 126.982 15.5318 127.259 14.8901C127.406 14.3617 127.721 14.3051 127.887 14.2673L127.924 13.5312H123.952V22.0243C123.564 21.7412 119.537 15.1166 119.445 15.0222C118.891 14.1352 118.115 13.5879 117.025 13.5312H114.809V29.8001H114.79Z" fill="#E6E6E6" fill-opacity="0.68"/>
<path fill-rule="evenodd" clip-rule="evenodd" d="M84.0869 13.9846V29.0078C84.0869 29.5363 84.6041 29.7627 85.3245 29.8571H88.5202V23.0627C89.0928 23.2137 88.7603 23.1382 89.4069 24.1385L91.8452 28.0264C92.7688 29.3664 93.323 29.7627 94.4128 29.8571H97.4422C97.6824 29.8571 97.941 29.8571 98.2181 29.8571C98.1072 29.3475 92.5471 20.7035 92.2516 20.2317C92.4548 20.0807 93.4523 18.9294 93.637 18.6652C94.0988 18.0424 94.616 17.6838 95.0963 17.0421C95.4103 16.6269 95.5027 16.5703 95.7982 16.2117L97.7747 13.5694C93.0828 13.5694 93.988 12.9466 90.3859 17.3441C89.9241 17.9103 89.0744 18.7973 88.4833 19.2314V13.5694H84.4564C84.1977 13.5694 84.0869 13.6638 84.0869 13.9846Z" fill="#E6E6E6" fill-opacity="0.68"/>
<path fill-rule="evenodd" clip-rule="evenodd" d="M30.2043 28.4406C30.1489 29.4786 30.6477 29.8183 31.7375 29.8561H39.7729C40.3086 29.8561 40.6226 29.5163 40.7519 28.8558V26.8741H35.4874C35.0071 26.9118 34.7115 26.742 34.6561 26.3079V22.9107H39.5143V19.7966H34.6561V16.6825H40.7519C40.7519 15.0216 41.1029 13.8703 39.9207 13.5684H30.2228V28.4406H30.2043Z" fill="#E6E6E6" fill-opacity="0.68"/>
<path fill-rule="evenodd" clip-rule="evenodd" d="M44.6143 29.1389C44.6143 29.5918 45.113 29.8561 45.5933 29.8561H48.9183V13.5684H44.6143V29.1389Z" fill="#E6E6E6" fill-opacity="0.68"/>
<path fill-rule="evenodd" clip-rule="evenodd" d="M70.1067 28.4406C70.0513 29.4786 70.55 29.8183 71.6399 29.8561H79.6752C80.2109 29.8561 80.5249 29.5163 80.6542 28.8558V26.8741H75.3897C74.9094 26.9118 74.6139 26.742 74.5585 26.3079V22.9107H79.4166V19.7966H74.5585V16.6825H80.6542C80.6542 15.0216 81.0052 13.8703 79.823 13.5684H70.1252V28.4406H70.1067Z" fill="#E6E6E6" fill-opacity="0.68"/>
<path fill-rule="evenodd" clip-rule="evenodd" d="M100.396 28.4406C100.34 29.4786 100.839 29.8183 101.929 29.8561H109.964C110.5 29.8561 110.814 29.5163 110.943 28.8558V26.8741H105.679C105.198 26.9118 104.903 26.742 104.848 26.3079V22.9107H109.706V19.7966H104.848V16.6825H110.943C110.943 15.0216 111.294 13.8703 110.112 13.5684H100.414V28.4406H100.396Z" fill="#E6E6E6" fill-opacity="0.68"/>
<path fill-rule="evenodd" clip-rule="evenodd" d="M13.4887 15.0789L13.4332 29.6113H17.7742V22.5716H21.524L21.5055 29.6113H25.7911V13.5312H21.4871V19.3442C21.5055 19.6085 21.3762 19.7783 21.0622 19.7783H18.1621C17.885 19.7783 17.7557 19.6462 17.7372 19.3442V13.5312H12.7498C12.6944 14.607 13.5071 14.1352 13.4887 15.0789Z" fill="#E6E6E6" fill-opacity="0.68"/>
<path fill-rule="evenodd" clip-rule="evenodd" d="M6.76417 10.5489L9.81207 12.8703L8.61138 17.098C7.42917 17.9473 6.22848 18.8154 5.06474 19.6647C4.62141 19.8157 4.62141 19.4383 4.84307 18.7966L6.85653 12.3041C4.86155 10.7754 2.84809 9.24665 0.853104 7.71791C0.649911 7.54805 0.668383 7.28382 1.24102 7.28382L8.53749 7.37819C9.27637 5.07564 10.0153 2.75422 10.7541 0.451672C10.9019 0.0175853 11.179 0.0742054 11.3083 0.413926L13.525 7.47256H21.0246C21.2278 7.47256 21.2832 7.64242 21.117 7.75566L17.4595 10.4357H13.3033L12.158 6.84974C12.0841 6.64213 11.9548 6.64213 11.8809 6.84974L10.6987 10.3979L6.80112 10.4168C6.61639 10.3979 6.61639 10.4734 6.76417 10.5489Z" fill="#E6E6E6" fill-opacity="0.68"/>
</svg>
