<svg width="109" height="26" viewBox="0 0 109 26" fill="none" xmlns="http://www.w3.org/2000/svg">
<g clip-path="url(#clip0_2986_967)">
<path d="M17.6241 21.0852C17.9038 21.6275 17.5172 22.3293 16.8828 22.3293H12.1936C11.8775 22.3452 11.566 22.1743 11.4136 21.8667L7.88423 15.0381H5.91261V21.468C5.91261 21.9442 5.54421 22.3293 5.07802 22.3293L0.836861 22.3224C0.377497 22.3224 0 21.9397 0 21.468V4.04889C0 3.57724 0.375223 3.19218 0.836861 3.19218L5.07802 3.19445C5.54421 3.19445 5.91261 3.57952 5.91261 4.04889V10.0254H7.37029L10.62 3.65927C10.7609 3.36306 11.0588 3.1899 11.3613 3.1899H16.0391C16.6895 3.1899 17.0783 3.92129 16.7645 4.47041L12.9236 12.0715L17.6241 21.0852ZM33.7291 3.1899H19.9391C19.4752 3.1899 19.1023 3.57724 19.1023 4.04661V21.468C19.1023 21.9442 19.4752 22.3293 19.9391 22.3293H33.7291C34.1931 22.3293 34.566 21.9442 34.566 21.468V17.9432C34.566 17.4761 34.1931 17.0887 33.7291 17.0887H25.0149V15.0381H30.5C30.9661 15.0381 31.3368 14.653 31.3368 14.1814V10.8821C31.3368 10.4082 30.9639 10.0254 30.5 10.0254H25.0149V8.20259H33.7291C34.1931 8.20259 34.566 7.81525 34.566 7.34132V4.04889C34.5637 3.57724 34.1931 3.1899 33.7291 3.1899ZM52.3038 8.20259H50.2572V17.3166H52.3038V8.20259ZM58.2164 4.04889V21.468C58.2164 21.9442 57.8412 22.3293 57.375 22.3293H50.2572V24.6556C50.2572 25.1364 49.8888 25.5192 49.4226 25.5192H45.1814C44.7175 25.5192 44.3446 25.1364 44.3446 24.6556V22.3293C42.0455 22.3293 39.519 22.3224 37.2199 22.3224C36.7605 22.3224 36.3875 21.9397 36.3875 21.468L36.3853 4.04889C36.3853 3.57724 36.7605 3.19218 37.2199 3.19218H44.3446V0.861272C44.3446 0.385066 44.4901 0 44.954 0H49.1952C49.6614 0 50.2572 0.382788 50.2572 0.861272V3.1899C52.7882 3.1899 55.0828 3.19218 57.375 3.19218C57.8435 3.19218 58.2164 3.57724 58.2164 4.04889ZM44.3446 8.20259H42.2979V17.3166H44.3446V8.20259ZM76.0248 3.1899H72.202C71.9814 3.1899 71.7358 3.25142 71.6108 3.44281L65.9483 12.3039V4.04889C65.9483 3.57724 65.5731 3.19218 65.1069 3.19218H60.8771C60.4132 3.19218 60.0357 3.57952 60.0357 4.04889V21.468C60.0357 21.9442 60.4132 22.3293 60.8771 22.3293H64.8772C65.191 22.3293 65.4457 22.1402 65.6072 21.8918L70.9513 13.5571V21.468C70.9513 21.9442 71.3288 22.3293 71.7859 22.3293H76.027C76.4887 22.3293 76.8639 21.9442 76.8639 21.468V4.04889C76.8616 3.57724 76.4887 3.1899 76.0248 3.1899ZM88.4617 8.20259H84.5958V12.076H88.4617V8.20259ZM94.3743 4.04205V16.2297C94.3743 16.7014 93.9991 17.0842 93.5443 17.0842L84.5958 17.0887V21.4748C84.5958 21.951 84.2205 22.3361 83.7635 22.3361L79.52 22.3293C79.0584 22.3293 78.6832 21.9465 78.6832 21.4748V4.04433C78.6832 3.57268 79.0538 3.18762 79.52 3.18762L93.5443 3.1899C93.9991 3.18534 94.3743 3.57041 94.3743 4.04205Z" fill="#E6E6E6" fill-opacity="0.68"/>
<path d="M97.3281 22.4947C97.3281 22.989 97.7038 23.3831 98.1654 23.3831H106.726C107.188 23.3831 107.561 22.989 107.561 22.4947V18.1426H97.3281V22.4947Z" fill="#E6E6E6" fill-opacity="0.68"/>
<path d="M107.45 1.05469L97.4001 1.06789C96.9635 1.06789 96.6255 1.47262 96.6497 1.93454L97.3364 16.5485H107.55L108.246 1.89714C108.259 1.43302 107.888 1.05469 107.45 1.05469ZM106.362 5.71788C106.362 6.28979 106.261 6.43057 105.69 6.42618H99.223C98.7316 6.42618 98.5517 6.33378 98.5517 5.84108L98.4091 3.53586C98.4091 3.10914 98.4705 2.88258 99.0388 2.89138H105.853C106.379 2.89138 106.524 3.04535 106.443 3.55787L106.362 5.71788Z" fill="#E6E6E6" fill-opacity="0.68"/>
</g>
<defs>
<clipPath id="clip0_2986_967">
<rect width="108.246" height="25.5192" fill="white"/>
</clipPath>
</defs>
</svg>
