<svg width="138" height="26" viewBox="0 0 138 26" fill="none" xmlns="http://www.w3.org/2000/svg">
<path fill-rule="evenodd" clip-rule="evenodd" d="M12.2715 7.81641C15.0969 7.81641 17.461 10.1468 17.461 13.0599C17.461 15.9147 15.1546 18.3034 12.2715 18.3034C9.44614 18.3034 7.08203 15.9729 7.08203 13.0599C7.08203 10.1468 9.44614 7.81641 12.2715 7.81641Z" fill="#E6E6E6" fill-opacity="0.68"/>
<path fill-rule="evenodd" clip-rule="evenodd" d="M12.271 0.707031C19.0174 0.707031 24.4375 6.24182 24.4375 13.0001C24.4375 19.8166 18.9597 25.2931 12.271 25.2931C10.5412 25.2931 8.86903 24.9436 7.31218 24.2444L7.08153 24.1279V19.1757L7.65814 19.5836C8.98435 20.5157 10.5989 21.0401 12.2134 21.0401C16.6533 21.0401 20.2283 17.4279 20.2283 12.9418C20.2283 8.45573 16.6533 4.84356 12.2134 4.84356C7.77347 4.84356 4.19847 8.45573 4.19847 12.9418C4.19847 13.0583 4.19847 13.1749 4.19847 13.2914V22.2636L3.56421 21.6227C1.31542 19.2923 0.046875 16.2044 0.046875 12.9418C0.104536 6.24181 5.52468 0.707031 12.271 0.707031Z" fill="#E6E6E6" fill-opacity="0.68"/>
<path fill-rule="evenodd" clip-rule="evenodd" d="M115.195 9.91324C115.195 10.9619 115.657 11.9524 116.291 12.6515C116.925 13.3506 117.905 13.8167 118.943 13.8167C120.731 13.8167 122.115 12.6515 122.518 10.9037H121.423C121.019 12.0689 120.039 12.7098 118.886 12.7098C118.136 12.7098 117.502 12.4185 117.04 11.8941C116.579 11.3698 116.233 10.7289 116.233 9.91324C116.233 9.09759 116.522 8.45672 117.04 7.93238C117.502 7.40803 118.194 7.11672 118.886 7.11672C119.981 7.11672 120.961 7.69933 121.365 8.86454H122.461C121.999 7.11672 120.673 6.00977 118.943 6.00977C117.905 6.00977 116.983 6.47585 116.291 7.17498C115.657 7.81585 115.195 8.80629 115.195 9.91324ZM125.055 10.3211L127.823 13.7002H129.265L126.843 10.7872C128.169 10.5541 128.803 9.50542 128.803 8.45672C128.803 7.23324 127.996 6.00977 126.324 6.00977H123.556V13.7002H124.652V7.11672H126.324C127.246 7.11672 127.708 7.75759 127.708 8.45672C127.708 9.09759 127.246 9.79672 126.324 9.79672H125.055V10.3211ZM131.167 8.28194L133.128 11.2532H133.762L135.723 8.28194V13.7002H136.818V6.00977H135.953L133.416 9.73846L130.879 6.00977H130.014V13.7002H131.11V8.28194H131.167Z" fill="#E6E6E6" fill-opacity="0.68"/>
<path fill-rule="evenodd" clip-rule="evenodd" d="M31.2969 5.95083V20.1082H33.315V15.3891H36.3711C39.3694 15.3891 40.9263 13.0587 40.9263 10.67C40.9263 8.28127 39.4271 5.95083 36.3711 5.95083H31.2969ZM33.3727 13.4082V8.04823H36.4287C38.1586 8.04823 38.9658 9.38823 38.9658 10.7282C38.9658 12.0682 38.1009 13.4082 36.4287 13.4082H33.3727ZM45.0202 14.1074H51.363V12.0682H45.0202V8.04823H51.4783V6.0091H42.9444V20.1665H51.4783V18.1274H45.0202V14.1074ZM56.6101 13.9326L61.742 20.1665H64.3367L59.8968 14.8647C62.3186 14.4569 63.5295 12.5343 63.5295 10.5534C63.5295 8.28127 62.0303 6.06736 58.9742 6.06736H53.8424V20.2247H55.8605V8.04823H58.9742C60.7041 8.04823 61.5113 9.27171 61.5113 10.4952C61.5113 11.7187 60.6464 12.9421 58.9742 12.9421H56.6101V13.9326ZM67.5657 14.1074H73.1589V12.1848H67.5657V7.93171H73.9085V5.95083H65.5476V20.1082H67.5657V14.1074ZM77.4834 14.1074H83.8262V12.0682H77.4834V8.04823H83.9415V6.0091H75.4076V20.1665H83.9415V18.1274H77.4258V14.1074H77.4834ZM85.6713 13.1169C85.6713 15.0978 86.4786 16.8456 87.6895 18.1274C88.9003 19.4091 90.6302 20.2247 92.533 20.2247C95.8197 20.2247 98.3568 18.0108 99.164 14.8065H97.2036C96.454 16.9621 94.6665 18.1856 92.533 18.1856C91.2068 18.1856 89.9959 17.603 89.0733 16.6708C88.2084 15.7387 87.6318 14.5152 87.6318 13.0587C87.6318 11.6021 88.2084 10.3204 89.0733 9.44649C89.9382 8.51431 91.1491 7.93171 92.533 7.93171C94.6088 7.93171 96.3386 8.9804 97.0306 11.1361H99.0487C98.2415 7.93171 95.7044 5.89258 92.533 5.89258C90.6302 5.89258 88.9003 6.70823 87.6895 7.98996C86.4786 9.32996 85.6713 11.0778 85.6713 13.1169ZM106.083 20.1082V7.87344H110.293V5.95083H99.7983V7.87344H104.065V20.1082H106.083Z" fill="#E6E6E6" fill-opacity="0.68"/>
</svg>
