<svg width="80" height="40" viewBox="0 0 80 40" fill="none" xmlns="http://www.w3.org/2000/svg">
<path fill-rule="evenodd" clip-rule="evenodd" d="M33.3476 0.5H0V22.1659H8.33689C6.98064 20.2929 6.24873 18.0113 6.2521 15.667C6.2521 9.68384 10.9178 4.83308 16.6738 4.83308C22.4293 4.83308 27.095 9.68384 27.095 15.667C27.095 18.1058 26.3194 20.3559 25.0111 22.1659H33.3471L33.3476 0.5Z" fill="#E6E6E6" fill-opacity="0.68"/>
<path fill-rule="evenodd" clip-rule="evenodd" d="M12.6326 13.4992H12.5056V39.5H37.5162V39.367C25.5706 35.7083 16.1535 25.9187 12.6326 13.4992Z" fill="#E6E6E6" fill-opacity="0.68"/>
<path fill-rule="evenodd" clip-rule="evenodd" d="M65.5312 20.5357C65.4884 20.6441 65.436 20.8012 65.3764 21.008C65.3159 21.2152 65.2858 21.3861 65.2858 21.5209C65.2858 21.6468 65.3145 21.7443 65.3696 21.811C65.4265 21.8796 65.5152 21.935 65.6363 21.9804C65.7055 21.9974 65.7847 22.013 65.8762 22.0268C65.9677 22.041 66.0469 22.0528 66.1161 22.0604V22.3244H63.9334V22.0604C64.0714 22.0429 64.2075 21.9974 64.3413 21.9255C64.4756 21.8541 64.5903 21.7684 64.6854 21.67C64.7628 21.5796 64.8279 21.4826 64.8802 21.379C64.9317 21.2768 64.9663 21.1973 64.9845 21.1433L67.8135 13.4917H68.0466L70.968 22.0604H71.8365V22.3244H68.3033V22.0604H69.4458L68.5018 19.3338H65.9964L65.5312 20.5357ZM67.3074 15.7162L66.0619 19.0683H68.4107L67.3074 15.7162ZM79.0136 13.7572V22.058H79.9995V22.3244H76.597V22.058H77.5829V13.7572H76.139C76.0261 13.7572 75.8705 13.7709 75.6715 13.7983C75.4722 13.8243 75.2983 13.91 75.1513 14.0543C75.0352 14.1624 74.9513 14.3028 74.9096 14.4589C74.8733 14.6009 74.8453 14.745 74.8258 14.8905C74.809 15.0343 74.7948 15.1933 74.7857 15.3679C74.7775 15.5444 74.7716 15.7507 74.7671 15.9888C74.7625 16.2268 74.758 16.5083 74.7548 16.8315C74.7493 17.1552 74.7434 17.5328 74.7343 17.9644L74.6838 20.0289C74.6747 20.3621 74.6642 20.6597 74.651 20.9256C74.6424 21.1688 74.5918 21.4084 74.5017 21.6331C74.4334 21.8034 74.3542 21.9345 74.2686 22.0244C74.1831 22.1134 74.0838 22.1725 73.9591 22.2402C73.8339 22.3074 73.6437 22.3254 73.4024 22.3254C72.9791 22.3254 72.6336 22.2265 72.3668 22.0282C72.2354 21.9263 72.1232 21.8 72.0359 21.6558C71.9371 21.4982 71.8866 21.2928 71.8866 21.0402C71.8866 20.7515 71.9649 20.5121 72.1215 20.3223C72.2772 20.1335 72.4975 20.0389 72.7829 20.0389C73.0255 20.0389 73.2176 20.1103 73.361 20.2546C73.5035 20.399 73.5754 20.5703 73.5754 20.7681C73.5754 21.0023 73.5203 21.2096 73.4101 21.3894C73.3673 21.4528 73.3282 21.5105 73.2945 21.5649C73.2644 21.6083 73.2469 21.6597 73.244 21.713C73.244 21.7585 73.2654 21.8171 73.3091 21.8891C73.351 21.9605 73.4461 21.9965 73.5909 21.9965C73.7119 21.9965 73.8307 21.9586 73.9509 21.8829C74.0702 21.8063 74.1999 21.6558 74.2586 21.4798C74.3173 21.3051 74.3679 21.1111 74.3806 20.8864C74.3938 20.6616 74.4047 20.3748 74.4134 20.0247L74.4648 17.9611C74.473 17.512 74.4817 17.1486 74.4908 16.8699C74.499 16.5916 74.504 16.3716 74.504 16.2093V15.1176C74.504 14.9837 74.4967 14.8261 74.4835 14.6463C74.4698 14.4647 74.4048 14.2914 74.2969 14.148C74.232 14.0621 74.1527 13.9892 74.0629 13.9327C73.981 13.8812 73.8944 13.8382 73.8043 13.8045C73.7183 13.7732 73.5795 13.7567 73.3892 13.7567H73.0779V13.4912H80V13.7572H79.0136ZM51.8239 13.7657H50.7305L53.2928 19.3778L54.8942 15.1318C54.937 15.0324 54.9798 14.8947 55.0175 14.7192C55.0558 14.5436 55.0763 14.4012 55.0763 14.2933C55.0763 14.113 55.0175 13.9796 54.9001 13.8939C54.78 13.8072 54.6366 13.7624 54.4904 13.7657H54.3083V13.4955H56.5192V13.7657C56.3208 13.7657 56.1537 13.8016 56.0194 13.874C55.8952 13.9386 55.7812 14.0227 55.6817 14.1234C55.5968 14.2092 55.5243 14.3072 55.4664 14.4144C55.4149 14.5129 55.3794 14.5895 55.3621 14.6439L53.5272 19.5803C53.423 19.8505 53.3092 20.0919 53.21 20.3039C53.1112 20.5163 53.0188 20.6938 52.8936 20.9053C52.7593 21.132 52.6874 21.2564 52.5504 21.4419C52.3938 21.6548 52.3105 21.7466 52.1252 21.9175C51.965 22.066 51.8121 22.1692 51.6605 22.2331C51.492 22.2985 51.3132 22.3301 51.1334 22.3263C50.8657 22.3263 50.6308 22.2837 50.431 22.1981C50.2436 22.1195 50.0686 22.0123 49.9116 21.8801C49.6858 21.6823 49.5411 21.4769 49.476 21.2649C49.4149 21.0799 49.3818 20.8861 49.3781 20.6905C49.3781 20.5726 49.395 20.4558 49.4296 20.3384C49.4642 20.2206 49.5156 20.1155 49.5862 20.0204C49.6554 19.9267 49.7464 19.8472 49.8593 19.7843C49.9722 19.7213 50.1064 19.6892 50.263 19.6892C50.5402 19.6892 50.7483 19.7706 50.8871 19.9329C51.0259 20.0952 51.0951 20.2584 51.0951 20.4188C51.0951 20.5187 51.0774 20.6181 51.0437 20.7174C51.0124 20.809 50.9687 20.8955 50.914 20.9744C50.8093 21.1192 50.6918 21.2294 50.5621 21.3056C50.4315 21.3823 50.3664 21.4788 50.3664 21.5962C50.3664 21.6861 50.4214 21.785 50.5289 21.8943C50.6372 22.0017 50.8125 22.0556 51.056 22.0556C51.2472 22.0556 51.432 22.0064 51.609 21.9075C51.787 21.8082 51.9372 21.6913 52.0579 21.5559C52.153 21.4476 52.2399 21.3264 52.3182 21.1911C52.3956 21.0553 52.448 20.9654 52.4739 20.9209L49.1437 13.7652H48.2456V13.495H51.8239V13.7657ZM47.9707 15.8236C47.9542 15.6636 47.9217 15.5058 47.8737 15.3528C47.8214 15.1815 47.744 15.0064 47.6398 14.8261C47.5355 14.6458 47.3971 14.4712 47.2246 14.2994C46.8961 13.9729 46.4871 13.7471 46.0429 13.6469C45.6039 13.5446 45.1555 13.4925 44.7056 13.4917H41.0071V13.7576H41.9931V22.0585H41.0071V22.3244H44.4106V22.0585H43.4246V18.8156H44.6869C45.1972 18.8156 45.6879 18.756 46.1558 18.6344C46.6242 18.5128 47.0057 18.2994 47.3011 17.9937C47.3616 17.9303 47.4308 17.8475 47.5091 17.7453C47.5865 17.6407 47.6621 17.5153 47.7367 17.3667C47.8095 17.2181 47.871 17.0454 47.9188 16.8471C47.9661 16.6498 47.9898 16.425 47.9898 16.1738C47.9888 16.0568 47.9824 15.9399 47.9707 15.8236ZM45.9319 17.9724C45.8499 18.0727 45.7584 18.157 45.6351 18.2398C45.5244 18.3057 45.4066 18.3578 45.2841 18.395C45.158 18.4344 45.0297 18.4657 44.8999 18.4887C44.7839 18.5106 44.667 18.5264 44.5494 18.536C44.4411 18.5455 44.361 18.5497 44.3086 18.5497H43.4251V13.7576H44.3086C44.5513 13.7576 44.8048 13.7808 45.0697 13.8253C45.301 13.8646 45.5158 13.9625 45.717 14.1116C45.732 14.1234 45.748 14.1333 45.7625 14.1452C45.7757 14.1561 45.7912 14.1646 45.8044 14.1759C45.8727 14.2384 45.935 14.3037 45.9883 14.3718C46.3342 14.7887 46.5555 15.4266 46.5555 16.1407C46.555 16.8935 46.3088 17.5584 45.9319 17.9724ZM62.5387 13.4917C62.4695 13.7704 62.3184 13.91 62.0844 13.91C61.9893 13.91 61.8905 13.8901 61.7867 13.849C61.64 13.7922 61.493 13.7362 61.3457 13.681C61.1874 13.6218 61.0252 13.5745 60.8604 13.5395C60.6875 13.5061 60.5119 13.4902 60.336 13.4922C60.1289 13.4922 59.8622 13.4941 59.5982 13.5437C59.3351 13.5934 59.0469 13.6426 58.7365 13.7936C58.4625 13.9266 58.2868 14.0259 58.0236 14.2677C57.7605 14.51 57.5125 14.8195 57.2785 15.1962C57.02 15.6367 56.8356 16.0877 56.7282 16.5495C56.6207 17.0113 56.5666 17.4992 56.5666 18.0103C56.5666 18.6122 56.6308 19.1417 56.7614 19.5988C56.8911 20.0568 57.0555 20.4567 57.2548 20.7974C57.4232 21.0769 57.6258 21.3325 57.8575 21.5578C58.0662 21.7563 58.3035 21.9197 58.5608 22.0419C58.8193 22.1697 59.0497 22.252 59.2977 22.2847C59.5542 22.3146 59.8121 22.3286 60.0702 22.3268C60.3565 22.3268 60.6224 22.2946 60.8686 22.2293C61.1112 22.1663 61.3446 22.07 61.5628 21.943C61.6925 21.8716 61.8118 21.8039 61.9192 21.741C62.0275 21.678 62.0376 21.6468 62.1495 21.6468C62.2365 21.6468 62.3034 21.669 62.3503 21.7149C62.3981 21.7594 62.4372 21.811 62.4677 21.8692C62.4978 21.9288 62.5192 21.9884 62.5328 22.0519C62.5451 22.1143 62.5506 22.2984 62.5506 22.3249H62.8433L62.8442 19.3868H62.6075C62.612 19.4521 62.6147 19.5174 62.6147 19.5851C62.6147 20.0535 62.4914 20.4808 62.2893 20.8088C62.2788 20.8277 62.2679 20.8466 62.2556 20.8655C62.0263 21.2203 61.7207 21.5147 61.363 21.7253C60.9924 21.9487 60.6251 22.0604 60.2623 22.0604C60.0301 22.0604 59.7975 22.0064 59.5636 21.8995C59.3451 21.8011 59.1436 21.6663 58.9668 21.5006C58.8483 21.3901 58.7402 21.2681 58.6441 21.1362C58.5385 20.9843 58.452 20.8258 58.3259 20.4434C58.3017 20.3729 58.2818 20.3008 58.2663 20.2277C58.1265 19.6149 58.0432 18.819 58.0432 17.9483C58.0432 16.2547 58.3651 15.1469 58.7315 14.6681C58.7511 14.6411 58.8052 14.5748 58.8257 14.5483C58.9025 14.4535 58.9851 14.3639 59.0729 14.28C59.1708 14.1814 59.282 14.098 59.4029 14.0326C59.5519 13.9462 59.71 13.8779 59.874 13.8291C60.0552 13.7756 60.2696 13.7572 60.4867 13.7572C60.8326 13.7572 61.1426 13.8329 61.4194 13.9857C61.6957 14.1371 61.9165 14.3293 62.0808 14.5611C62.1582 14.6775 62.2274 14.8162 62.2879 14.9771C62.3484 15.1375 62.3999 15.3045 62.4436 15.4791C62.4873 15.6537 62.5219 15.8184 62.5478 15.9746C62.5729 16.1317 62.5906 16.2585 62.5984 16.3564H62.8551V13.4917H62.5387Z" fill="#E6E6E6" fill-opacity="0.68"/>
</svg>
