<svg width="83" height="46" viewBox="0 0 83 46" fill="none" xmlns="http://www.w3.org/2000/svg">
<path d="M28.6389 46L28.2808 45.9977L8.16261 45.9794L8.16936 36.8005L0 36.7959L0.0202714 9.37782L8.18963 9.38468L8.19864 0L28.6727 0.0205704L28.666 9.40296L83 9.45096L82.9977 9.84637L82.9775 36.8667L28.6434 36.8187L28.6389 46ZM8.87886 45.1886L27.9227 45.2046L27.9294 36.0279L82.2635 36.0759L82.2837 10.2418L27.9497 10.1938L27.9565 0.811388L8.91265 0.793103L8.90589 10.1778L0.736526 10.1686L0.716255 36.0028L8.88787 36.0096L8.87886 45.1886Z" fill="#E6E6E6" fill-opacity="0.68"/>
<path d="M76.4475 44.9265H77.4881C77.8034 44.9288 78.0512 44.8991 78.2561 44.8122C78.4386 44.7528 78.5737 44.6362 78.6864 44.49C78.8463 44.2843 78.9611 44.0191 79.0512 43.6969C79.1188 43.3472 79.1661 42.9335 79.1661 42.4649C79.1661 41.7907 79.0985 41.2924 78.9183 40.9404C78.7607 40.5884 78.558 40.3256 78.308 40.209C78.1503 40.1199 77.8552 40.0925 77.4701 40.0925L76.4497 40.0902L76.4475 44.9265ZM75.7898 45.6922L75.7943 39.3565L77.4926 39.3588C77.8552 39.3588 78.1503 39.3885 78.3553 39.4456C78.6481 39.5051 78.8733 39.6811 79.0783 39.8868C79.326 40.1816 79.531 40.5313 79.6436 40.9724C79.7765 41.4113 79.8463 41.9095 79.8441 42.4969C79.8441 42.9655 79.799 43.3769 79.7089 43.7586C79.6188 44.138 79.5265 44.4328 79.3913 44.6957C79.2314 44.9311 79.0963 45.1368 78.9386 45.2534C78.7787 45.3996 78.576 45.5185 78.3485 45.5756C78.121 45.6625 77.8507 45.6945 77.5557 45.6945L75.7898 45.6922ZM70.8548 45.6853L70.8616 39.3542H71.517L74.096 44.314L74.0983 39.3565L74.7087 39.3588L74.7042 45.6922H74.0487L71.472 40.7027L71.4697 45.6899L70.8548 45.6853ZM67.1677 43.0729L68.8435 43.0752L68.3254 41.3153C68.1655 40.7873 68.0529 40.3485 67.9853 39.9965C67.9155 40.4056 67.8254 40.817 67.7128 41.2284L67.1677 43.0729ZM65.7622 45.6808L67.6452 39.3497H68.348L70.3323 45.683H69.6093L69.0462 43.7471L66.9853 43.7449L66.4402 45.6808H65.7622ZM62.4602 45.6785L62.4625 39.3428L63.1202 39.3451L63.1157 44.9151L65.5145 44.9197L65.5122 45.6808L62.4602 45.6785ZM57.5478 45.6762L57.5523 39.3405H58.21L60.7867 44.3003L60.7912 39.3428H61.4016L61.3971 45.6785H60.7417L58.1672 40.689L58.1627 45.6762H57.5478ZM55.7639 39.3382L56.4216 39.3405L56.4149 45.6739H55.7594L55.7639 39.3382ZM51.5024 45.6693L51.5069 39.3359L54.8112 39.3382V40.0719L52.1646 40.0696V42.0352L54.4485 42.0375V42.7986L52.1646 42.7963L52.1601 45.6693H51.5024Z" fill="#E6E6E6" fill-opacity="0.68"/>
<path d="M76.7264 29.0603L78.8099 29.0626L78.8166 17.2437L76.7377 17.2414L76.7264 29.0603ZM70.5076 19.3213C70.6473 19.2893 70.85 19.2619 71.1428 19.2619C72.4559 19.2642 73.3366 20.4664 73.3366 22.928C73.3321 25.8604 72.3591 27.033 71.0031 27.001C70.8432 27.001 70.6405 27.0032 70.5031 26.9735L70.5076 19.3213ZM68.4444 28.994C68.8746 29.0534 69.5503 29.1426 70.4355 29.1449C72.0189 29.1449 73.242 28.7334 74.0573 27.8261C74.8277 26.9781 75.5079 25.4536 75.5101 22.9303C75.5124 20.7613 74.9943 19.2642 74.1091 18.3248C73.3411 17.5317 72.3455 17.15 70.8522 17.15C69.9242 17.1477 69.0638 17.2643 68.4512 17.3832L68.4444 28.994ZM66.7777 17.2346L64.8992 17.2323L64.8969 20.0459C64.8947 21.9818 64.9623 23.8583 65.0749 25.2091L65.0524 25.2068C64.7122 24.032 64.2167 22.5098 63.8113 21.4538L62.2504 17.23L60.0341 17.2277L60.0251 29.042L61.881 29.0443L61.8833 26.1393C61.8833 24.0297 61.8405 22.2126 61.7954 20.8321H61.8405C62.1581 22.0641 62.6783 23.6183 63.1086 24.7314L64.6897 29.0443H66.7709L66.7777 17.2346ZM58.3605 17.2277L56.4821 17.2254L56.4798 20.039C56.4776 21.9749 56.5677 23.8514 56.6578 25.2022H56.6352C56.2951 24.0274 55.7973 22.5029 55.3919 21.4469L53.831 17.2232L51.6147 17.2209L51.6079 29.0374L53.4639 29.0397V26.137C53.4639 24.0251 53.4211 22.2081 53.3783 20.8298H53.4233C53.7387 22.0618 54.2567 23.616 54.6869 24.7314L56.2906 29.0443L58.3493 29.0466L58.3605 17.2277ZM45.9725 24.2537L46.3824 21.8766C46.4973 21.2024 46.655 20.119 46.7676 19.3853H46.7901C46.9027 20.119 47.0604 21.175 47.173 21.8766L47.5784 24.2537H45.9725ZM48.1731 17.2186L45.5468 17.2163L43.1165 29.0306L45.2224 29.0329L45.7225 26.2787L47.8284 26.281L48.3465 29.0374L50.4975 29.0397L48.1731 17.2186ZM42.3507 26.5964C42.0331 26.7747 41.5128 26.889 41.0375 26.889C39.5667 26.8867 38.6162 25.5953 38.6185 23.1314C38.6207 20.4641 39.7086 19.3213 41.0218 19.3236C41.6096 19.3236 42.0398 19.4699 42.3574 19.6756L42.7201 17.4769C42.4723 17.3032 41.8371 17.0655 40.9091 17.0655C38.5554 17.0632 36.4269 19.0539 36.4247 23.2777C36.4224 26.5621 37.8009 29.1723 40.6974 29.1769C41.5826 29.1791 42.3056 28.9734 42.6232 28.7677L42.3507 26.5964ZM35.294 17.5569C34.866 17.294 34.1858 17.0586 33.3254 17.0586C31.1992 17.0563 30.0212 18.6082 30.0189 20.6333C30.0189 22.0412 30.7645 23.184 32.2127 24.0365C33.161 24.5965 33.5687 25.0056 33.5687 25.7096C33.5664 26.4113 33.1362 26.9095 32.2555 26.9095C31.5303 26.9095 30.7622 26.617 30.2869 26.2924L29.9243 28.5483C30.3523 28.8729 31.26 29.1654 32.188 29.1654C34.3818 29.1677 35.6521 27.6432 35.6544 25.4742C35.6566 24.0045 35.0462 22.8617 33.5979 22.0115C32.4898 21.367 32.1271 21.0424 32.1294 20.3681C32.1294 19.7807 32.5123 19.2825 33.3051 19.2825C34.0529 19.2848 34.5957 19.5773 34.9111 19.783L35.294 17.5569Z" fill="#E6E6E6" fill-opacity="0.68"/>
<path fill-rule="evenodd" clip-rule="evenodd" d="M17.6445 12.0774C17.1445 12.1071 16.9891 12.3699 16.6715 11.8419C16.6715 11.6065 17.3269 10.93 17.6445 12.0774ZM25.8747 25.6607C25.422 24.0585 24.8499 22.7397 23.6088 22.7991C23.289 22.39 22.9016 22.054 22.3903 21.8734C21.7551 21.6975 21.2799 21.814 20.6244 21.8415C19.6041 21.8712 18.0882 21.7797 17.7301 20.8724L17.2774 19.9924C17.1197 20.7558 16.8472 22.0152 15.6016 22.5111C15.7818 22.2186 15.9417 22.1294 16.1692 21.7797C17.3224 20.0793 17.2346 17.7045 17.5972 15.7412C16.7143 15.7686 16.1715 15.6498 15.7886 15.0944C16.4665 15.5652 17.0319 15.6223 17.9373 15.4486C18.6401 15.2703 19.523 15.5355 20.1357 15.1264C20.451 14.8909 20.1582 15.0669 20.5433 14.4818C20.701 14.2761 20.5884 14.5412 20.6785 14.2464C21.1785 12.4568 19.3 12.6922 18.9149 12.0454C18.532 11.8694 18.5094 11.6934 18.2144 11.3414C17.9441 10.9894 17.8765 11.0763 17.5589 10.8134C17.1715 10.5003 16.6873 10.2009 16.4305 9.92433C16.6039 9.46035 16.7751 9.0558 16.9711 8.72896C17.1986 8.31984 17.4688 7.96785 17.7864 7.70501C18.3067 7.26617 18.6491 7.17932 18.8968 7.14961C19.1716 7.1199 19.3743 7.17932 19.6446 7.00562C20.1199 6.68335 19.6672 6.24451 19.5996 6.36108C19.5771 6.39079 19.5996 6.62392 19.3518 6.62392C19.1491 6.62392 18.8315 6.53478 18.854 6.50735C19.6469 5.09942 19.0365 3.95662 18.3811 3.45608C17.8157 3.04467 17.0702 3.22066 17.2954 3.51322C17.3405 3.57264 17.5905 3.57264 17.6558 3.60236C17.8833 3.71892 18.1986 3.80806 18.2684 4.13033C17.9734 3.86749 17.4283 3.95662 17.9058 4.36575C18.4689 4.8343 18.4689 5.36455 18.1761 5.94967C17.881 6.59649 17.1783 7.41474 16.658 7.913C16.8179 7.59073 16.953 7.18161 16.7954 6.62392C16.6828 6.30165 16.5003 6.56449 16.5003 6.74049C16.4102 7.95414 15.9034 8.22841 15.6714 8.88438C15.5025 8.93695 15.3268 8.95523 15.1151 8.8661C14.5475 8.1827 14.1173 7.39417 14.1691 6.47536C14.1916 6.21251 13.9889 6.00681 13.784 6.50278C13.624 6.91419 13.5362 7.38503 13.9168 8.41126C12.0406 7.38274 10.3423 6.29479 11.6352 4.24461C12.2906 3.15895 11.5676 3.51322 11.1599 4.12804C11.2748 2.98296 12.633 2.40013 12.6803 2.135C13.1555 0.0825309 5.93217 5.73482 13.1037 8.99637C13.7434 9.28436 14.2637 9.6592 14.7412 10.1209L14.8426 10.5254C14.3223 10.7883 14.302 9.73234 13.5092 9.49692C12.8965 10.3472 13.0992 11.0214 13.6421 11.5814C13.7547 11.7277 13.7547 11.9631 13.7794 12.1665C13.802 12.3722 13.847 12.5779 13.847 12.7813C13.847 13.0167 13.9168 12.811 13.847 12.987C11.3762 17.2977 10.6937 23.9831 12.7276 28.3851C12.9528 28.8811 13.1105 29.4388 13.1353 29.6125C13.4506 30.6113 13.6758 31.2261 13.9686 32.1929L14.6241 34.4237C14.7818 36.2705 15.3223 38.0304 14.8223 40.8736C14.5948 41.461 14.6173 41.813 14.5948 42.4256C14.5948 42.6038 15.3629 42.693 15.7931 42.5741L15.9102 38.7046L15.9124 33.9254C15.9124 33.546 15.9124 33.722 15.8651 33.3974L15.6422 31.4341C15.5971 30.8764 15.5295 30.817 15.5295 30.0833C15.0092 30.1999 14.3088 29.6719 14.061 29.0274C14.5115 29.2902 15.1466 29.7039 15.6219 29.5874C16.1399 32.2249 16.2548 30.8467 16.4102 33.2512C16.4553 33.6603 16.4778 34.0717 16.5679 34.5105C16.6805 34.9791 16.7256 35.3631 16.7706 35.715C16.7256 36.7116 16.7233 37.6784 16.8584 38.6772L16.8787 41.7856C16.7661 42.197 16.7188 42.2839 16.6737 43.5729C17.149 43.7192 17.6468 43.7512 18.1896 43.5181C18.2346 42.725 18.077 41.9936 18.0319 41.7856L17.9441 41.4336C17.9193 40.9651 17.7842 39.3537 17.854 38.6795C17.9666 37.3607 17.8788 37.0658 17.7887 35.6853C17.7909 35.4248 17.9261 34.3963 17.9283 34.1037C17.9283 33.6054 17.9508 33.8386 17.9508 33.3723L17.9283 31.8181C18.0882 30.9953 18.3833 29.7336 18.3383 28.504C18.4509 28.9131 18.4959 29.3519 18.4734 29.7931C19.1761 29.7656 21.6875 29.3862 21.6898 27.3063C21.9848 28.3623 21.5299 28.9474 22.2979 30.737L23.111 32.5266C23.7214 33.8454 24.039 34.2294 24.039 35.6922C24.0142 36.8099 24.0142 37.7469 23.9467 38.8623C23.9467 39.3606 23.9219 39.9754 23.6967 40.268C23.3092 40.7982 23.1516 41.1776 23.334 41.941C23.8093 42.1444 24.262 42.2039 24.7373 42.0599L24.7823 40.6222C24.8746 40.1811 24.9197 39.7126 25.012 39.1572C25.0796 38.716 24.9445 38.3641 24.967 37.9549C25.0143 36.7801 25.1269 35.667 25.172 34.5837L25.1967 33.1757L24.9692 32.6181C24.2688 30.6547 24.4309 29.7748 24.7237 27.8092C24.7778 27.336 24.7891 26.4698 24.6539 25.5418C25.0684 25.6721 25.5031 25.7361 25.8747 25.6607Z" fill="#E6E6E6" fill-opacity="0.68"/>
<path fill-rule="evenodd" clip-rule="evenodd" d="M21.7282 29.3227C21.7057 28.9707 21.6832 28.5616 21.6854 28.0039H21.6607C21.4579 28.7376 20.8903 29.2656 20.075 29.6747C19.9849 29.7341 19.9601 29.7067 20.0074 29.821C20.2799 30.6415 20.843 31.7271 21.3633 32.726C21.5233 33.0482 21.5233 33.3979 21.5661 33.6631C22.1291 36.5955 21.8791 38.0331 21.539 38.8834C21.5165 38.9405 21.494 39.0296 21.4489 39.0571C21.0435 39.6148 20.9714 39.9645 20.9714 40.5221C21.4917 40.7873 21.9445 40.8467 22.4197 40.7301L22.6697 39.3816C22.8747 38.6205 23.0549 38.3851 23.0774 37.768C23.0999 37.1829 22.967 34.2207 22.8769 32.2277C22.2485 31.142 21.8634 30.5249 21.7282 29.3227Z" fill="#E6E6E6" fill-opacity="0.68"/>
</svg>
