<svg width="104" height="48" viewBox="0 0 104 48" fill="none" xmlns="http://www.w3.org/2000/svg">
<path d="M21.7633 48H21.2227V5.17532L0.59591 0.748948V43.1949H0.046875V0L21.7633 4.67041V48Z" fill="#E6E6E6" fill-opacity="0.68"/>
<path fill-rule="evenodd" clip-rule="evenodd" d="M20.4963 47.7728L16.898 46.9562V36.9694L20.4625 37.7672V37.0434L16.898 36.2441V17.2491L20.4263 17.9701L20.4625 35.8233V36.446L20.4963 47.7728ZM18.241 26.5833H19.2631V30.1345H18.241V26.5833Z" fill="#E6E6E6" fill-opacity="0.68"/>
<path d="M16.349 36.8465V46.8316L4.72636 44.1942V34.2452L16.349 36.8465Z" fill="#E6E6E6" fill-opacity="0.68"/>
<path d="M4.17733 34.1223V44.0617L1.29702 43.4137V33.4777L4.17733 34.1223Z" fill="#E6E6E6" fill-opacity="0.68"/>
<path d="M4.17733 33.3915L1.29702 32.7457V14.0608L4.17733 14.6494V33.3915Z" fill="#E6E6E6" fill-opacity="0.68"/>
<path d="M4.17733 14.0993L1.29702 13.5104V2.0112L4.17733 2.60867V14.0993Z" fill="#E6E6E6" fill-opacity="0.68"/>
<path d="M4.72636 14.2116V2.71807L16.349 5.09417V16.5878L4.72636 14.2116Z" fill="#E6E6E6" fill-opacity="0.68"/>
<path d="M20.4034 5.92424L16.898 5.20895V16.7L20.4252 17.4212L20.4203 15.0126V14.3899L20.4034 5.92424Z" fill="#E6E6E6" fill-opacity="0.68"/>
<path d="M16.349 17.1368L4.72636 14.7617V33.5146L16.349 36.121V17.1368Z" fill="#E6E6E6" fill-opacity="0.68"/>
<path d="M52.3529 22.2605H32.1682V9.35342H34.0584V20.5094H41.2436V9.35342H43.178V20.5094H50.3632V9.35342H52.3087L52.3529 22.2605ZM67.1101 22.2605H54.7185V9.35342H67.1101V11.1265H56.664V14.8709H66.7453V16.6329H56.664V20.5425H67.1101V22.2605ZM85.2277 22.2605H83.2933V11.0384L72.2945 22.2605H69.3651V9.34241H71.2996V20.6526L82.4089 9.34241H85.2277V22.2605ZM80.0765 9.18823H74.2842V7.4482H80.0765V9.18823ZM102.992 22.2605H101.057V11.1265H91.7165V13.5493C91.7165 19.3751 90.9648 22.2825 89.4393 22.2825H87.5601V20.5314H88.3229C89.2956 20.5314 89.782 18.6372 89.782 14.8488V9.34241H103.047L102.992 22.2605Z" fill="#E6E6E6" fill-opacity="0.68"/>
<path d="M47.1465 44.3301H45.212V41.9623H33.1962V44.3301H31.1733V40.2113H32.2787C32.6026 39.1013 32.8359 37.9669 32.9751 36.8193C33.1376 35.6772 33.2261 34.5258 33.2404 33.3723V29.0773H46.2179V40.2113H47.1243L47.1465 44.3301ZM44.3056 40.2113V30.8284H35.1638V33.3723C35.1815 35.6765 34.9096 37.9738 34.3569 40.2113H44.3056ZM64.634 31.401C65.0319 34.1363 65.0319 36.9144 64.634 39.6496C64.2692 40.85 63.1638 41.6209 61.3178 41.9513C59.8686 42.1228 58.4094 42.1891 56.9514 42.1495C55.4746 42.1898 53.9967 42.1236 52.5298 41.9513C50.6727 41.6099 49.5562 40.85 49.2136 39.6606C48.9626 38.3028 48.8665 36.9212 48.9262 35.5418C48.8687 34.1588 48.9648 32.7738 49.2136 31.412C49.575 30.2006 50.6804 29.4297 52.5298 29.0993C53.9967 28.9169 55.4746 28.8469 56.9514 28.8901C58.4094 28.852 59.8686 28.9183 61.3178 29.0883C63.1671 29.426 64.2725 30.197 64.634 31.401ZM62.998 35.5418C62.998 33.1631 62.7437 31.7644 62.2352 31.346C61.6825 30.8724 59.9139 30.6411 56.9404 30.6411C55.6603 30.6073 54.3802 30.6441 53.1046 30.7513C52.731 30.7723 52.3695 30.8912 52.0567 31.0963C51.7449 31.3012 51.4918 31.585 51.3249 31.9186C50.9634 33.0907 50.8175 34.3181 50.8938 35.5418C50.8131 36.7492 50.9667 37.9607 51.347 39.11C51.5205 39.4417 51.7759 39.724 52.0887 39.9301C52.4027 40.1363 52.763 40.2596 53.1378 40.2884C54.4023 40.3946 55.6714 40.4314 56.9404 40.3985C59.0627 40.3985 60.3229 40.3985 60.743 40.3104C61.1188 40.2834 61.4825 40.1611 61.7975 39.9548C62.1137 39.7485 62.3701 39.4653 62.5448 39.132C62.9217 37.9743 63.0754 36.7563 62.998 35.5418ZM77.5893 29.0663C80.029 29.0663 81.2516 30.4429 81.2593 33.1961C81.3245 34.2566 81.0028 35.3048 80.3529 36.1475C79.9903 36.532 79.5459 36.8306 79.0529 37.0212C78.5588 37.2117 78.0282 37.2896 77.5009 37.2488H68.9561V41.9623H67.0217V29.0553L77.5893 29.0663ZM77.5009 35.5198C78.7169 35.5198 79.3248 34.7379 79.3248 33.1851C79.3248 31.6323 78.7169 30.8173 77.4899 30.8173H68.9561V35.5198H77.5009ZM97.8514 37.4801C97.9565 38.7073 97.6326 39.9328 96.934 40.9491C96.2541 41.6262 95.3411 42.02 94.3805 42.0504C93.9162 42.1055 92.656 42.1275 90.5889 42.1275C89.0657 42.1869 87.5402 42.0649 86.0457 41.7641C85.5593 41.6533 85.1061 41.4302 84.7214 41.1126C84.3378 40.7951 84.0339 40.392 83.8349 39.936C83.3574 38.5185 83.1551 37.0236 83.238 35.5308C83.1562 34.02 83.3585 32.5071 83.8349 31.0706C84.0372 30.6165 84.3412 30.2152 84.7247 29.898C85.1083 29.5808 85.5604 29.3565 86.0457 29.2425C87.5402 28.9428 89.0657 28.8208 90.5889 28.8791C92.6781 28.8791 93.9051 28.8791 94.3805 28.9562C95.34 28.9909 96.2519 29.384 96.934 30.0575C97.6337 31.0772 97.9576 32.3067 97.8514 33.5375H95.9612C95.9612 32.1279 95.6627 31.2799 95.0658 30.9935C93.621 30.6385 92.1288 30.5122 90.6442 30.6191C89.4548 30.5781 88.2642 30.6371 87.0848 30.7953C86.7399 30.8516 86.4171 30.9987 86.1485 31.2214C85.881 31.4441 85.6765 31.7343 85.5593 32.0618C85.2951 33.1945 85.1901 34.3584 85.2498 35.5198C85.1901 36.6679 85.3018 37.8184 85.5814 38.9338C85.6997 39.2627 85.9053 39.5538 86.175 39.7767C86.4459 39.9995 86.7708 40.1457 87.1179 40.2003C88.2864 40.359 89.4658 40.4179 90.6442 40.3765C92.1276 40.4794 93.6177 40.3606 95.0658 40.0241C95.6738 39.7267 95.9723 38.8677 95.9723 37.4581L97.8514 37.4801Z" fill="#E6E6E6" fill-opacity="0.68"/>
</svg>
