<svg width="85" height="40" viewBox="0 0 85 40" fill="none" xmlns="http://www.w3.org/2000/svg">
<g clip-path="url(#clip0_2986_934)">
<path d="M59.4551 7.73752H78.4266L80.1282 5.375C73.933 5.46415 67.7622 6.07707 61.7164 7.26724C60.9604 7.41657 60.2066 7.57259 59.4551 7.73975V7.73752Z" fill="#E6E6E6" fill-opacity="0.68"/>
<path d="M80.3962 5.00147L83.9644 0.046875H55.8962C51.5096 0.0713917 47.7786 1.61594 44.7078 4.68499C42.9415 6.45019 41.686 8.41821 40.9277 10.589C53.5992 6.28526 67.0245 4.27489 80.3985 5.00147H80.3962Z" fill="#E6E6E6" fill-opacity="0.68"/>
<path d="M7.05947 24.0254L0.369141 31.6434H3.95962C7.13529 28.9198 10.4693 26.3768 13.9371 24.0254H7.05947Z" fill="#E6E6E6" fill-opacity="0.68"/>
<path d="M35.6654 12.0529H19.1737C18.6296 12.0529 18.1523 11.8478 17.7442 11.4399C17.3361 11.0321 17.1309 10.5105 17.1309 9.87533C17.1309 9.24013 17.3361 8.71859 17.7442 8.31072C18.1523 7.90285 18.6296 7.6978 19.1737 7.6978H38.9102L45.6005 0.0820312H19.1737C16.3972 0.0820312 14.0467 1.04264 12.1221 2.96608C10.1975 4.88953 9.23633 7.19187 9.23633 9.87756C9.23633 12.5633 10.1975 14.8656 12.1221 16.789C14.0444 18.7125 16.3972 19.6731 19.1737 19.6731H20.8887C25.9622 16.7467 31.2654 14.2126 36.7314 12.1086C36.3835 12.0751 36.0289 12.0551 35.6654 12.0551V12.0529Z" fill="#E6E6E6" fill-opacity="0.68"/>
<path d="M55.9987 23.9877V24.351C55.9987 24.351 55.9943 23.9052 55.992 23.9052V23.9877C53.7954 23.9877 51.9087 23.1987 50.3298 21.6207C48.7509 20.0427 47.9614 18.1104 47.9614 15.8259C47.9614 13.5414 48.6817 11.7895 50.1157 10.2539C42.7296 12.6187 35.6111 15.7969 28.9051 19.6705H35.669C36.2132 19.6705 36.6904 19.8756 37.0985 20.2835C37.5066 20.6913 37.7118 21.2129 37.7118 21.8481C37.7118 22.4833 37.5066 23.0048 37.0985 23.4127C36.6904 23.8205 36.2132 24.0256 35.669 24.0256H21.9739C18.5239 26.3725 15.1922 28.9111 12.041 31.6436H35.6713C38.4478 31.6436 40.7983 30.683 42.7229 28.7595C43.3897 28.0931 43.9405 27.3777 44.3754 26.6177C44.4869 26.7358 44.5962 26.8539 44.7121 26.9676C47.8031 30.0567 51.5675 31.6726 55.9876 31.677H78.5206L84.0557 23.9877H56.0032H55.9987Z" fill="#E6E6E6" fill-opacity="0.68"/>
</g>
<g clip-path="url(#clip1_2986_934)">
<path d="M4.72678 37.466C5.03676 37.6889 5.19287 38.021 5.19287 38.4645C5.19287 38.908 4.96763 39.2669 4.51715 39.5432C4.06666 39.8196 3.46899 39.9555 2.72414 39.9555C1.97928 39.9555 1.39945 39.8196 0.986881 39.5477C0.574311 39.2758 0.369141 38.9415 0.369141 38.5447C0.369141 38.4467 0.420433 38.3999 0.523018 38.3999H1.89454C1.9882 38.3999 2.06402 38.4266 2.12201 38.4823C2.24689 38.596 2.46321 38.6539 2.77097 38.6539C3.19469 38.6539 3.40655 38.5915 3.40655 38.4667C3.40655 38.3887 3.33965 38.3285 3.20584 38.2817C3.07203 38.2349 2.80665 38.1926 2.40969 38.1502C1.14745 38.0009 0.516328 37.5351 0.516328 36.7461C0.516328 36.3026 0.719268 35.9437 1.12515 35.6718C1.53103 35.3977 2.07295 35.2617 2.75536 35.2617C3.43777 35.2617 3.98415 35.4088 4.40564 35.703C4.8249 35.9972 5.03453 36.307 5.03453 36.6347C5.03453 36.6792 5.02115 36.7149 4.99216 36.7416C4.96317 36.7684 4.92303 36.7818 4.87396 36.7818H3.43554C3.35526 36.7818 3.28613 36.7572 3.22814 36.706C3.1211 36.6124 2.96053 36.5678 2.74644 36.5678C2.4476 36.5678 2.29819 36.628 2.29819 36.7483C2.29819 36.813 2.35617 36.8642 2.47214 36.8999C2.5881 36.9355 2.82003 36.9734 3.16793 37.0135C3.89941 37.096 4.41902 37.2476 4.72901 37.4682L4.72678 37.466Z" fill="#E6E6E6" fill-opacity="0.68"/>
<path d="M10.604 36.6383H9.393V38.5773H10.604C10.653 38.5773 10.6954 38.5952 10.7311 38.6308C10.7667 38.6665 10.7846 38.7088 10.7846 38.7579V39.7675C10.7846 39.8165 10.7667 39.8589 10.7311 39.8945C10.6954 39.9302 10.653 39.948 10.604 39.948H6.36228C6.31322 39.948 6.27084 39.9302 6.23516 39.8945C6.19948 39.8589 6.18164 39.8165 6.18164 39.7675V38.7579C6.18164 38.7088 6.19948 38.6665 6.23516 38.6308C6.27084 38.5952 6.31322 38.5773 6.36228 38.5773H7.58661V36.6383H6.36228C6.31322 36.6383 6.27084 36.6205 6.23516 36.5848C6.19948 36.5491 6.18164 36.5068 6.18164 36.4578V35.4481C6.18164 35.3991 6.19948 35.3567 6.23516 35.3211C6.27084 35.2854 6.31322 35.2676 6.36228 35.2676H10.604C10.653 35.2676 10.6954 35.2854 10.7311 35.3211C10.7667 35.3567 10.7846 35.3991 10.7846 35.4481V36.4578C10.7846 36.5068 10.7667 36.5491 10.7311 36.5848C10.6954 36.6205 10.653 36.6383 10.604 36.6383Z" fill="#E6E6E6" fill-opacity="0.68"/>
<path d="M16.7241 38.477C16.7241 39.4577 16.0952 39.948 14.8374 39.948H12.081C12.032 39.948 11.9896 39.9302 11.9539 39.8945C11.9182 39.8589 11.9004 39.8165 11.9004 39.7675V35.4481C11.9004 35.3991 11.9182 35.3567 11.9539 35.3211C11.9896 35.2854 12.032 35.2676 12.081 35.2676H14.7705C15.4039 35.2676 15.8722 35.3835 16.1733 35.6108C16.4743 35.8404 16.6238 36.1881 16.6238 36.6517V36.6717C16.6238 36.8857 16.5658 37.0684 16.4498 37.22C16.3338 37.3716 16.2134 37.4674 16.0885 37.5075C16.2625 37.561 16.4119 37.6791 16.5368 37.8597C16.6617 38.0402 16.7241 38.2475 16.7241 38.477ZM14.7393 36.9303C14.7862 36.8656 14.8085 36.7921 14.8085 36.7118C14.8085 36.6316 14.7862 36.5625 14.7393 36.5046C14.6925 36.4466 14.6234 36.4176 14.5342 36.4176H13.6376V37.0261H14.5342C14.6234 37.0261 14.6925 36.9927 14.7393 36.928V36.9303ZM13.6376 38.1427V38.798H14.6077C14.7103 38.798 14.7862 38.7645 14.8374 38.6955C14.8887 38.6264 14.9155 38.5506 14.9155 38.4637V38.457C14.9155 38.3723 14.8887 38.2987 14.8308 38.2363C14.775 38.1739 14.7014 38.1427 14.6077 38.1427H13.6376Z" fill="#E6E6E6" fill-opacity="0.68"/>
<path d="M19.3586 38.6442H22.0281C22.0771 38.6442 22.1195 38.662 22.1552 38.6977C22.1909 38.7333 22.2087 38.7757 22.2087 38.8247V39.7675C22.2087 39.8165 22.1909 39.8589 22.1552 39.8945C22.1195 39.9302 22.0771 39.948 22.0281 39.948H17.7998C17.7507 39.948 17.7083 39.9302 17.6727 39.8945C17.637 39.8589 17.6191 39.8165 17.6191 39.7675V35.4481C17.6191 35.3991 17.637 35.3567 17.6727 35.3211C17.7083 35.2854 17.7507 35.2676 17.7998 35.2676H21.9612C22.0102 35.2676 22.0526 35.2854 22.0883 35.3211C22.124 35.3567 22.1418 35.3991 22.1418 35.4481V36.3909C22.1418 36.4399 22.124 36.4823 22.0883 36.5179C22.0526 36.5536 22.0102 36.5714 21.9612 36.5714H19.3586V36.9927H21.5932C21.6423 36.9927 21.6846 37.0105 21.7203 37.0462C21.756 37.0818 21.7738 37.1242 21.7738 37.1732V38.0424C21.7738 38.0915 21.756 38.1338 21.7203 38.1695C21.6846 38.2051 21.6423 38.223 21.5932 38.223H19.3586V38.6442Z" fill="#E6E6E6" fill-opacity="0.68"/>
<path d="M28.2012 39.7408C28.2101 39.7586 28.2146 39.7831 28.2146 39.8143C28.2146 39.8455 28.1989 39.8767 28.17 39.9057C28.141 39.9347 28.1075 39.948 28.0674 39.948H26.5487C26.4149 39.948 26.3212 39.8923 26.2677 39.7809L25.6789 38.457H25.1169V39.7675C25.1169 39.8165 25.0991 39.8589 25.0634 39.8945C25.0277 39.9302 24.9854 39.948 24.9363 39.948H23.4912C23.4421 39.948 23.3998 39.9302 23.3641 39.8945C23.3284 39.8589 23.3105 39.8165 23.3105 39.7675V35.4481C23.3105 35.3991 23.3284 35.3567 23.3641 35.3211C23.3998 35.2854 23.4421 35.2676 23.4912 35.2676H26.0937C26.7048 35.2676 27.1887 35.4124 27.5455 35.7022C27.9023 35.9919 28.0808 36.3864 28.0808 36.8857C28.0808 37.4919 27.8466 37.931 27.3783 38.2029L28.2012 39.7408ZM25.1169 36.5112V37.22H25.9532C26.0514 37.22 26.1272 37.1888 26.1807 37.1242C26.2342 37.0595 26.261 36.9771 26.261 36.879C26.261 36.7809 26.2342 36.694 26.1852 36.6227C26.1339 36.5491 26.0558 36.5112 25.9532 36.5112H25.1169Z" fill="#E6E6E6" fill-opacity="0.68"/>
<path d="M33.3539 36.6383H32.143V38.5773H33.3539C33.403 38.5773 33.4454 38.5952 33.4811 38.6308C33.5167 38.6665 33.5346 38.7088 33.5346 38.7579V39.7675C33.5346 39.8165 33.5167 39.8589 33.4811 39.8945C33.4454 39.9302 33.403 39.948 33.3539 39.948H29.1123C29.0632 39.948 29.0208 39.9302 28.9852 39.8945C28.9495 39.8589 28.9316 39.8165 28.9316 39.7675V38.7579C28.9316 38.7088 28.9495 38.6665 28.9852 38.6308C29.0208 38.5952 29.0632 38.5773 29.1123 38.5773H30.3366V36.6383H29.1123C29.0632 36.6383 29.0208 36.6205 28.9852 36.5848C28.9495 36.5491 28.9316 36.5068 28.9316 36.4578V35.4481C28.9316 35.3991 28.9495 35.3567 28.9852 35.3211C29.0208 35.2854 29.0632 35.2676 29.1123 35.2676H33.3539C33.403 35.2676 33.4454 35.2854 33.4811 35.3211C33.5167 35.3567 33.5346 35.3991 33.5346 35.4481V36.4578C33.5346 36.5068 33.5167 36.5491 33.4811 36.5848C33.4454 36.6205 33.403 36.6383 33.3539 36.6383Z" fill="#E6E6E6" fill-opacity="0.68"/>
<path d="M35.6558 39.948H34.3913C34.3512 39.948 34.3155 39.9347 34.2865 39.9057C34.2575 39.8767 34.2441 39.8477 34.2441 39.821C34.2441 39.7942 34.2441 39.7742 34.2508 39.7608L35.7093 35.4882C35.7495 35.3411 35.8498 35.2676 36.0104 35.2676H37.8703C38.0309 35.2676 38.1312 35.3411 38.1714 35.4882L39.6299 39.7608C39.6343 39.7742 39.6365 39.7942 39.6365 39.821C39.6365 39.8477 39.6209 39.8767 39.5919 39.9057C39.563 39.9347 39.5295 39.948 39.4894 39.948H38.2249C38.0822 39.948 37.9818 39.8723 37.9238 39.7207L37.7566 39.2527H36.1241L35.9569 39.7207C35.8989 39.8723 35.7985 39.948 35.6558 39.948ZM37.4154 37.9488L36.9403 36.558L36.4653 37.9488H37.4154Z" fill="#E6E6E6" fill-opacity="0.68"/>
<path d="M47.68 37.1027V38.1146C47.68 38.2884 47.7402 38.4199 47.8629 38.5135C47.9855 38.6071 48.1461 38.6517 48.3446 38.6517C48.543 38.6517 48.6858 38.6227 48.7772 38.5626C48.8664 38.5046 48.94 38.4177 49.0002 38.304C49.0604 38.1903 49.1385 38.1324 49.2366 38.1324H50.6817C50.7219 38.1324 50.7553 38.1458 50.7843 38.1747C50.8133 38.2037 50.8289 38.2372 50.8289 38.2773C50.8289 38.6851 50.6327 39.0573 50.2402 39.3961C50.0439 39.5633 49.783 39.697 49.4574 39.8018C49.1318 39.9043 48.7482 39.9555 48.3067 39.9555C47.8651 39.9555 47.4614 39.8887 47.0979 39.7572C46.7344 39.6257 46.4378 39.4073 46.2103 39.1042C45.9829 38.8033 45.8691 38.4311 45.8691 37.992V37.2231C45.8691 36.784 45.9829 36.4118 46.2103 36.1087C46.6385 35.5425 47.3544 35.2617 48.3579 35.2617C48.7638 35.2617 49.1296 35.313 49.4552 35.4155C49.7808 35.518 50.0417 35.654 50.2379 35.8189C50.6304 36.1577 50.8267 36.5299 50.8267 36.9378C50.8267 36.9779 50.8111 37.0113 50.7821 37.0403C50.7531 37.0693 50.7196 37.0826 50.6795 37.0826H49.2344C49.1363 37.0826 49.0582 37.0269 48.998 36.911C48.9378 36.7974 48.8642 36.7104 48.775 36.6525C48.6858 36.5945 48.5408 36.5633 48.3423 36.5633C48.1439 36.5633 47.9833 36.6101 47.8606 36.7015C47.738 36.7951 47.6778 36.9266 47.6778 37.1005L47.68 37.1027Z" fill="#E6E6E6" fill-opacity="0.68"/>
<path d="M56.6348 39.7408C56.6437 39.7586 56.6482 39.7831 56.6482 39.8143C56.6482 39.8455 56.6325 39.8767 56.6036 39.9057C56.5746 39.9347 56.5411 39.948 56.501 39.948H54.9823C54.8485 39.948 54.7548 39.8923 54.7013 39.7809L54.1125 38.457H53.5505V39.7675C53.5505 39.8165 53.5327 39.8589 53.497 39.8945C53.4613 39.9302 53.419 39.948 53.3699 39.948H51.9248C51.8757 39.948 51.8333 39.9302 51.7977 39.8945C51.762 39.8589 51.7441 39.8165 51.7441 39.7675V35.4481C51.7441 35.3991 51.762 35.3567 51.7977 35.3211C51.8333 35.2854 51.8757 35.2676 51.9248 35.2676H54.5273C55.1384 35.2676 55.6223 35.4124 55.9791 35.7022C56.3359 35.9919 56.5143 36.3864 56.5143 36.8857C56.5143 37.4919 56.2802 37.931 55.8119 38.2029L56.6348 39.7408ZM53.5505 36.5112V37.22H54.3868C54.4849 37.22 54.5608 37.1888 54.6143 37.1242C54.6678 37.0595 54.6946 36.9771 54.6946 36.879C54.6946 36.7809 54.6678 36.694 54.6188 36.6227C54.5675 36.5491 54.4894 36.5112 54.3868 36.5112H53.5505Z" fill="#E6E6E6" fill-opacity="0.68"/>
<path d="M60.7185 35.2676H62.1168C62.1569 35.2676 62.1904 35.281 62.2194 35.3099C62.2483 35.3389 62.264 35.3701 62.264 35.4013C62.264 35.4325 62.2573 35.4615 62.2439 35.4882L60.5579 38.2764V39.7675C60.5579 39.8165 60.5401 39.8589 60.5044 39.8945C60.4687 39.9302 60.4264 39.948 60.3773 39.948H58.9522C58.9032 39.948 58.8608 39.9302 58.8251 39.8945C58.7894 39.8589 58.7716 39.8165 58.7716 39.7675V38.2764L57.0923 35.4882C57.079 35.4615 57.0723 35.4325 57.0723 35.4013C57.0723 35.3701 57.0856 35.3411 57.1169 35.3099C57.1481 35.2787 57.1793 35.2676 57.2195 35.2676H58.6311C58.756 35.2676 58.8474 35.3188 58.9054 35.4214L59.6614 36.7453L60.4375 35.4347C60.5044 35.3233 60.5981 35.2676 60.7185 35.2676Z" fill="#E6E6E6" fill-opacity="0.68"/>
<path d="M63.5342 35.2676H66.0363C66.6697 35.2676 67.1715 35.4214 67.5417 35.7289C67.9119 36.0365 68.097 36.431 68.097 36.9124C68.097 37.3938 67.9408 37.7772 67.6286 38.0603C67.3164 38.3433 66.7857 38.4859 66.0363 38.4859H65.1532V39.7697C65.1532 39.8188 65.1354 39.8611 65.0997 39.8968C65.064 39.9324 65.0216 39.9503 64.9726 39.9503H63.5342C63.4851 39.9503 63.4427 39.9324 63.407 39.8968C63.3714 39.8611 63.3535 39.8188 63.3535 39.7697V35.4481C63.3535 35.3991 63.3714 35.3567 63.407 35.3211C63.4427 35.2854 63.4851 35.2676 63.5342 35.2676ZM65.1599 36.5112V37.2467H66.0096C66.1122 37.2467 66.1947 37.2155 66.2593 37.1531C66.324 37.0907 66.3575 37.0038 66.3575 36.8924C66.3575 36.7809 66.3263 36.6895 66.2638 36.6182C66.2014 36.5469 66.1166 36.5112 66.0096 36.5112H65.1599Z" fill="#E6E6E6" fill-opacity="0.68"/>
<path d="M68.7295 35.2676H73.3458C73.3949 35.2676 73.4372 35.2854 73.4729 35.3211C73.5086 35.3567 73.5264 35.3991 73.5264 35.4481V36.5246C73.5264 36.5736 73.5086 36.616 73.4729 36.6517C73.4372 36.6873 73.3949 36.7051 73.3458 36.7051H71.9074V39.7675C71.9074 39.8165 71.8895 39.8589 71.8538 39.8945C71.8182 39.9302 71.7758 39.948 71.7267 39.948H70.3485C70.2995 39.948 70.2571 39.9302 70.2214 39.8945C70.1857 39.8589 70.1679 39.8165 70.1679 39.7675V36.7051H68.7295C68.6804 36.7051 68.638 36.6873 68.6023 36.6517C68.5667 36.616 68.5488 36.5736 68.5488 36.5246V35.4481C68.5488 35.3991 68.5667 35.3567 68.6023 35.3211C68.638 35.2854 68.6804 35.2676 68.7295 35.2676Z" fill="#E6E6E6" fill-opacity="0.68"/>
<path d="M79.2139 37.2097V38.0054C79.2139 38.4533 79.1024 38.8278 78.8794 39.1264C78.6564 39.4273 78.3643 39.6391 78.003 39.7661C77.6417 39.8931 77.2158 39.9555 76.7251 39.9555C76.2345 39.9555 75.8086 39.8931 75.4473 39.7661C75.086 39.6391 74.7939 39.4273 74.5708 39.1264C74.3478 38.8256 74.2363 38.4489 74.2363 37.992V37.2231C74.2363 36.5678 74.4683 36.0752 74.9277 35.7498C75.3893 35.4244 75.9892 35.2617 76.7251 35.2617C77.4611 35.2617 78.0587 35.4244 78.5226 35.7498C78.9842 36.0752 79.2139 36.5633 79.2139 37.2097ZM76.0427 37.1027V38.1146C76.0427 38.2884 76.1029 38.4199 76.2278 38.5135C76.3505 38.6071 76.5155 38.6517 76.7251 38.6517C76.9348 38.6517 77.0998 38.6049 77.2224 38.5091C77.3451 38.4132 77.4075 38.2795 77.4075 38.1079V37.1094C77.4075 36.9355 77.3451 36.8018 77.2224 36.7082C77.0998 36.6124 76.9348 36.5656 76.7251 36.5656C76.5155 36.5656 76.3482 36.6124 76.2278 36.7037C76.1052 36.7974 76.0427 36.9289 76.0427 37.1027Z" fill="#E6E6E6" fill-opacity="0.68"/>
</g>
<defs>
<clipPath id="clip0_2986_934">
<rect width="83.6782" height="31.631" fill="white" transform="translate(0.369141 0.046875)"/>
</clipPath>
<clipPath id="clip1_2986_934">
<rect width="78.8456" height="4.69383" fill="white" transform="translate(0.369141 35.2617)"/>
</clipPath>
</defs>
</svg>
