<svg width="114" height="24" viewBox="0 0 114 24" fill="none" xmlns="http://www.w3.org/2000/svg">
<g clip-path="url(#clip0_2986_919)">
<path d="M6.59466 4.28753C3.72982 6.20465 0.730277 7.50121 0.172485 7.736L14.3179 17.785C14.3251 17.7901 14.3309 17.7969 14.3349 17.8048C14.3389 17.8127 14.3409 17.8215 14.3407 17.8303V17.831C14.3407 17.84 14.3384 17.8489 14.3342 17.8568C14.3299 17.8647 14.3238 17.8714 14.3163 17.8763L13.6849 18.298C13.6759 18.3039 13.6653 18.307 13.6546 18.3069C13.6438 18.3068 13.6334 18.3034 13.6245 18.2973L8.45868 14.6907C6.4876 13.34 4.31333 13.6266 2.83703 14.1053C1.41988 14.5641 0.375669 15.2669 0.117188 15.4502C0.240963 15.5382 10.8027 23.0251 10.8737 23.0759C11.1017 22.8588 12.649 21.4256 15.9013 19.3904C19.3307 17.2476 21.3525 16.4986 21.8203 16.3401L7.64884 6.27411C7.64169 6.26906 7.63585 6.26233 7.63182 6.25449C7.62779 6.24666 7.62568 6.23795 7.62569 6.22911V6.22846C7.62579 6.21949 7.62804 6.21068 7.63224 6.20278C7.63644 6.19489 7.64247 6.18814 7.6498 6.18313L8.25293 5.77746C8.26175 5.77156 8.27209 5.76841 8.28266 5.76841C8.29324 5.76841 8.30358 5.77156 8.3124 5.77746C8.33137 5.78986 10.2314 7.05511 13.647 9.49432C16.8494 11.7796 21.3159 9.03909 21.9299 8.64125C21.8001 8.55027 11.0708 0.968184 11.003 0.919922C10.7345 1.1521 8.75542 2.84585 6.59466 4.28753Z" fill="#E6E6E6" fill-opacity="0.68"/>
<path d="M59.6038 5.96843V9.17038H66.6471C66.6614 9.17054 66.6751 9.17637 66.6852 9.18661C66.6952 9.19685 66.701 9.21068 66.7012 9.22516C66.7012 9.24016 66.695 9.25451 66.6838 9.26527L59.356 16.2053V18.9037H74.1605V15.6881H66.7899C66.779 15.688 66.7684 15.6847 66.7594 15.6785C66.7504 15.6722 66.7434 15.6634 66.7394 15.6532C66.7355 15.6429 66.7348 15.6316 66.7372 15.6209C66.7397 15.6101 66.7453 15.6004 66.7532 15.5929C66.7532 15.5929 74.1515 8.70406 74.1862 8.67112V5.96778C74.0798 5.96843 59.7106 5.96843 59.6038 5.96843ZM53.672 5.96843V14.1857C53.672 15.3864 52.6329 16.1032 50.8923 16.1032C49.1267 16.1032 48.1136 15.3926 48.1136 14.1535V5.96875H43.568V14.4163C43.568 16.2128 44.0194 17.3391 45.0318 18.0673C46.1397 18.8652 48.0018 19.2367 50.892 19.2367C53.7825 19.2367 55.645 18.8652 56.7528 18.0673C57.7655 17.3391 58.2169 16.2124 58.2169 14.4163V5.96875L53.672 5.96843ZM85.615 5.96843V14.1525C85.615 15.374 84.5769 16.1029 82.837 16.1029C81.0694 16.1029 80.056 15.3923 80.056 14.1531V5.96843H75.5117V14.416C75.5117 16.2124 75.9634 17.3388 76.9761 18.067C78.0843 18.8649 79.9464 19.2363 82.837 19.2363C85.7259 19.2363 87.5883 18.8649 88.6975 18.067C89.7099 17.3385 90.1619 16.2121 90.1619 14.416V5.96843H85.615ZM108.541 5.96843V18.9044H113.289V5.96843H108.541ZM101.476 5.96843C101.445 5.99452 96.3282 10.4581 96.3282 10.4581C96.3203 10.465 96.3107 10.4694 96.3004 10.4709C96.2901 10.4723 96.2797 10.4707 96.2703 10.4663C96.2607 10.4621 96.2526 10.4551 96.247 10.4462C96.2413 10.4373 96.2383 10.427 96.2385 10.4164V5.96843H91.4913V18.9044H96.2385V14.3331C96.2385 14.3116 96.251 14.2911 96.2716 14.2829C96.2813 14.2788 96.292 14.2776 96.3023 14.2794C96.3127 14.2813 96.3223 14.2861 96.3301 14.2934C96.3301 14.2934 101.079 18.874 101.11 18.9044H107.471L100.477 12.3074C100.471 12.3024 100.467 12.2962 100.464 12.2893C100.461 12.2823 100.459 12.2749 100.459 12.2673V12.266C100.459 12.2507 100.466 12.2357 100.479 12.2253L107.697 5.9681L101.476 5.96843ZM27.1779 9.86496C27.1779 11.2714 27.7142 12.2256 28.8654 12.8667C29.9244 13.4566 31.5158 13.8241 34.1868 14.0961L34.6916 14.1401C35.8493 14.2337 37.1613 14.3393 37.1613 15.3017C37.1613 15.9607 36.4562 16.3246 35.1761 16.3246C34.5507 16.3246 33.6329 16.1642 32.8639 14.7978H26.9062C26.9198 16.2959 27.4669 17.3241 28.6298 18.0262C29.9418 18.8189 32.0797 19.2037 35.1664 19.2037C42.0502 19.2037 42.5852 15.9516 42.5852 14.955C42.5852 12.6436 40.5547 11.2558 36.3768 10.7131L35.7207 10.629C33.8142 10.3887 32.3083 10.1989 32.3083 9.52028C32.3083 9.25777 32.3938 9.03798 32.5623 8.86743C33.0028 8.421 33.911 8.42231 34.2987 8.42264H34.335C34.6919 8.42264 35.9139 8.5309 36.7488 9.89594H42.148C42.1097 7.16423 39.2754 5.59766 34.353 5.59766C27.8772 5.59733 27.1779 8.58144 27.1779 9.86496Z" fill="#E6E6E6" fill-opacity="0.68"/>
</g>
<defs>
<clipPath id="clip0_2986_919">
<rect width="113.369" height="22.3544" fill="white" transform="translate(0 0.822266)"/>
</clipPath>
</defs>
</svg>
