<svg width="61" height="21" viewBox="0 0 61 21" fill="none" xmlns="http://www.w3.org/2000/svg">
<path d="M35.4963 9.95439H40.8891C41.1048 9.95439 41.2681 10.1443 41.2262 10.3505L39.5242 18.6175C37.326 20.1371 34.3826 20.998 31.0853 20.998C24.6374 20.998 20.4169 17.3545 20.4169 12.0196C20.4169 4.96305 25.8558 0 33.7901 0C38.0085 0 41.0629 1.25693 43.035 3.66975C43.1522 3.81322 43.1208 4.02136 42.9722 4.13251L38.4837 7.49105C38.3393 7.60017 38.1299 7.57794 38.0127 7.44457C36.7315 5.97142 35.3246 5.48239 33.4635 5.48239C29.8083 5.48239 27.4908 8.00635 27.4908 11.5932C27.4908 13.9454 29.1844 15.5237 32.0672 15.5237C32.7496 15.5237 33.4342 15.4368 34.1167 15.2367L35.1613 10.2252C35.1907 10.0655 35.333 9.95439 35.4963 9.95439Z" fill="#E6E6E6" fill-opacity="0.68"/>
<path d="M40.3675 18.6822L42.7562 14.2728C42.8462 14.1071 43.0577 14.0485 43.2272 14.1374C45.4484 15.3115 47.7178 15.8349 49.9327 15.8349C51.7457 15.8349 52.6961 15.3762 52.6961 14.6588C52.6961 12.5349 42.8002 13.7696 42.8002 7.54359C42.8002 2.98268 46.7527 0 53.32 0C56.2655 0 58.9117 0.547633 60.8272 1.56611C60.9863 1.65098 61.045 1.84296 60.9633 2.00058L58.7442 6.33718C58.6563 6.50895 58.4365 6.56755 58.2648 6.4746C56.6633 5.59353 54.7687 5.16513 52.8761 5.16513C50.8266 5.16513 49.8155 5.8239 49.8155 6.51299C49.8155 8.72171 59.7407 7.31524 59.7407 13.513C59.7407 17.987 55.6982 21 49.2209 21C45.6808 21 42.5196 20.218 40.5078 19.1267C40.3424 19.0378 40.2796 18.8418 40.3675 18.6822Z" fill="#E6E6E6" fill-opacity="0.68"/>
<path d="M13.2798 0.719359L11.603 8.08916C11.5695 8.23264 11.6385 8.38016 11.7725 8.45088L15.6706 10.5222C15.8674 10.6273 15.9093 10.8839 15.7523 11.0415L7.65045 19.1671C7.4097 19.4096 6.991 19.1914 7.06846 18.864L8.82908 11.4255C8.86049 11.2901 8.80187 11.1486 8.67835 11.0718L4.66304 8.59638C4.47881 8.48322 4.4495 8.23668 4.60232 8.08714L11.7432 1.02248C11.9547 0.812315 11.8018 0.460698 11.4983 0.460698H2.72028C2.55698 0.460698 2.41672 0.571842 2.38322 0.727442L0.149468 11.5043C-0.74864 17.1039 2.46278 21 8.10892 21C11.894 21 15.0154 19.9795 17.5757 18.3649L21.1597 0.856772C21.2016 0.652673 21.0404 0.460698 20.8227 0.460698H13.6148C13.4536 0.460698 13.3154 0.5678 13.2798 0.719359Z" fill="#E6E6E6" fill-opacity="0.68"/>
</svg>
