<svg xmlns="http://www.w3.org/2000/svg" width="145" height="30" fill="none"><path fill="#fff" d="M45.916 22.962c-1.156 1.636-2.791 2.455-4.902 2.455-2.112 0-3.729-.819-4.885-2.455-.722-1.055-1.108-3.932-1.157-6.129h-4.175v.876c0 3.003.906 6.54 2.72 8.484 2.029 2.167 4.528 3.25 7.498 3.25 2.97 0 5.476-1.083 7.516-3.25 1.815-1.945 2.72-4.418 2.72-7.423v-1.937h-4.175c-.048 2.23-.434 5.107-1.158 6.129h-.002ZM34.963.5h-4.17V13h4.17V.5ZM51.248.5H47.08V13h4.17V.5ZM59.616.5h-4.169v12.58h4.17V.5ZM59.606 16.917h-4.17l.01 12.093h4.17l-.01-12.093ZM62.918.5l7.055 12.583h5.902L82.915.502 82.913.5h-4.851l-5.127 9.114L67.808.5h-4.89ZM68.826 16.917l-6.751 12.002.152.081h4.742l5.958-10.648L78.897 29h4.94L77.04 16.917h-8.215ZM90.21.5h-1.383V29h1.384V.5Z"/><path fill="#fff" fill-rule="evenodd" d="M24.234 16.833h-5.657V13h12.276v3.833h-2.859c.108-.87.14-1.752.091-2.638l-3.693-.028c.047.878-.006 1.779-.158 2.666Zm0 0h3.76a14.747 14.747 0 0 1-2.882 7.115c-2.105 2.77-5.116 4.656-8.47 5.304a13.687 13.687 0 0 1-9.758-1.78C3.95 25.674 1.748 22.838.691 19.49a14.929 14.929 0 0 1 .45-10.213c1.346-3.235 3.788-5.854 6.868-7.369a13.658 13.658 0 0 1 9.874-.86c3.283.96 6.116 3.118 7.97 6.074L22.78 9.175c-1.371-2.186-3.466-3.783-5.894-4.493a10.101 10.101 0 0 0-7.302.637c-2.279 1.12-4.084 3.057-5.08 5.45a11.04 11.04 0 0 0-.333 7.552c.782 2.476 2.41 4.574 4.58 5.902a10.122 10.122 0 0 0 7.217 1.317c2.48-.48 4.707-1.874 6.264-3.923 1.032-1.357 1.705-3.044 2.002-4.784Z" clip-rule="evenodd"/><path fill="#fff" d="m28.085 14.195-3.693-.028c.047.878-.006 1.779-.158 2.666h3.76c.108-.87.14-1.752.091-2.638Z"/><path fill="#5E5E5E" d="M96 28.707v-17.46h5.895c1.179 0 2.187.226 3.023.679a4.64 4.64 0 0 1 1.934 1.863c.445.79.668 1.703.668 2.742 0 1.04-.227 1.957-.68 2.754-.445.797-1.09 1.422-1.934 1.875-.844.445-1.855.668-3.035.668h-4.875v-1.453h4.852c.859 0 1.59-.16 2.191-.48a3.42 3.42 0 0 0 1.395-1.348c.32-.578.48-1.25.48-2.016 0-.765-.16-1.433-.48-2.004a3.325 3.325 0 0 0-1.395-1.347c-.601-.32-1.336-.48-2.203-.48h-4.219v16.007H96ZM110.578 28.707v-17.46h5.977c1.179 0 2.187.218 3.023.655.844.43 1.488 1.04 1.934 1.829.445.78.668 1.695.668 2.742 0 1.039-.231 1.949-.692 2.73-.453.774-1.105 1.375-1.957 1.805-.843.43-1.851.644-3.023.644h-5.039v-1.465h5.051c.859 0 1.589-.152 2.191-.457a3.257 3.257 0 0 0 1.383-1.289c.32-.562.48-1.218.48-1.968 0-.774-.16-1.438-.48-1.992-.321-.563-.785-1-1.395-1.313-.601-.313-1.336-.469-2.203-.469h-4.301v16.008h-1.617Zm10.16 0-4.23-7.887h1.84l4.265 7.887h-1.875ZM132.375 28.953c-1.492 0-2.816-.375-3.973-1.125-1.148-.75-2.05-1.797-2.707-3.14-.648-1.352-.972-2.918-.972-4.7 0-1.797.324-3.367.972-4.71.657-1.344 1.559-2.391 2.707-3.141 1.157-.758 2.481-1.137 3.973-1.137s2.813.379 3.961 1.137c1.148.75 2.047 1.797 2.695 3.14.649 1.344.973 2.914.973 4.711 0 1.782-.324 3.348-.973 4.7-.648 1.343-1.547 2.39-2.695 3.14s-2.469 1.125-3.961 1.125Zm0-1.523c1.141 0 2.164-.293 3.07-.88.914-.593 1.637-1.445 2.168-2.554.532-1.117.797-2.453.797-4.008 0-1.562-.265-2.898-.797-4.008-.531-1.117-1.254-1.972-2.168-2.566-.906-.594-1.929-.89-3.07-.89-1.141 0-2.168.296-3.082.89-.914.586-1.637 1.438-2.168 2.555-.531 1.117-.797 2.457-.797 4.02 0 1.546.262 2.878.785 3.995.532 1.11 1.254 1.961 2.168 2.555.914.594 1.946.89 3.094.89Z"/></svg>