<svg xmlns="http://www.w3.org/2000/svg" width="60" height="60" fill="none"><g filter="url(#a)"><circle cx="30" cy="30" r="30" fill="#fff" fill-opacity=".07"/><circle cx="30" cy="30" r="29.5" stroke="#fff" stroke-opacity=".08"/></g><path stroke="#fff" stroke-width="1.5" d="M20 28v4c0 2 1 3 3 3h1.43c.37 0 .74.11 1.06.3l2.92 1.83c2.52 1.58 4.59.43 4.59-2.54v-9.18c0-2.98-2.07-4.12-4.59-2.54l-2.92 1.83c-.32.19-.69.3-1.06.3H23c-2 0-3 1-3 3Z"/><path stroke="#fff" stroke-linecap="round" stroke-linejoin="round" stroke-width="1.5" d="M36 26a6.66 6.66 0 0 1 0 8M37.83 23.5a10.83 10.83 0 0 1 0 13"/><defs><filter id="a" width="87.4" height="87.4" x="-13.7" y="-13.7" color-interpolation-filters="sRGB" filterUnits="userSpaceOnUse"><feFlood flood-opacity="0" result="BackgroundImageFix"/><feGaussianBlur in="BackgroundImageFix" stdDeviation="6.85"/><feComposite in2="SourceAlpha" operator="in" result="effect1_backgroundBlur_2986_977"/><feBlend in="SourceGraphic" in2="effect1_backgroundBlur_2986_977" result="shape"/></filter></defs></svg>