<svg width="32" height="32" viewBox="0 0 32 32" fill="none" xmlns="http://www.w3.org/2000/svg">
<path d="M26.0003 10.6657C23.7417 9.01702 17.4103 3.72635 17.4103 3.72635C16.707 3.13168 15.6557 3.21968 15.0617 3.92235C14.4663 4.62502 14.5543 5.67635 15.257 6.27102L18.8743 9.33235H6.33366C5.413 9.33235 4.667 10.0783 4.667 10.999C4.667 11.9197 5.413 12.6657 6.33366 12.6657H12.1917L1.319 21.0103C0.588997 21.571 0.450997 22.617 1.01166 23.347C1.33966 23.775 1.83433 23.999 2.335 23.999C2.689 23.999 3.04566 23.887 3.349 23.6544L10.013 18.5397C10.011 18.617 10.0003 18.691 10.0003 18.7683C10.0003 23.9797 14.355 27.999 20.0003 27.999C25.6457 27.999 30.445 23.9797 30.445 18.7683C30.445 15.5157 28.5843 12.5523 26.0003 10.6657Z" fill="url(#paint0_linear_3144_1762)"/>
<path d="M20.333 24C23.9229 24 26.833 21.3137 26.833 18C26.833 14.6863 23.9229 12 20.333 12C16.7432 12 13.833 14.6863 13.833 18C13.833 21.3137 16.7432 24 20.333 24Z" fill="white"/>
<path opacity="0.07" d="M20.3333 11.9993C23.9233 11.9993 26.8333 14.6853 26.8333 17.9993C26.8333 21.3133 23.9233 23.9993 20.3333 23.9993C16.7433 23.9993 13.8333 21.3133 13.8333 17.9993C13.8333 14.6853 16.7433 11.9993 20.3333 11.9993ZM20.3333 11.666C16.5653 11.666 13.5 14.5073 13.5 17.9993C13.5 21.4913 16.5653 24.3327 20.3333 24.3327C24.1013 24.3327 27.1667 21.4913 27.1667 17.9993C27.1667 14.5073 24.1013 11.666 20.3333 11.666Z" fill="black"/>
<path opacity="0.05" d="M20.3337 11.6673C24.1017 11.6673 27.167 14.5087 27.167 18.0007C27.167 21.4927 24.1017 24.334 20.3337 24.334C16.5657 24.334 13.5003 21.4927 13.5003 18.0007C13.5003 14.5087 16.5657 11.6673 20.3337 11.6673ZM20.3337 11.334C16.3817 11.334 13.167 14.3247 13.167 18.0007C13.167 21.6767 16.3817 24.6673 20.3337 24.6673C24.2857 24.6673 27.5003 21.6767 27.5003 18.0007C27.5003 14.3247 24.2857 11.334 20.3337 11.334Z" fill="black"/>
<path d="M20.3337 21.3327C22.3587 21.3327 24.0003 19.8403 24.0003 17.9993C24.0003 16.1584 22.3587 14.666 20.3337 14.666C18.3086 14.666 16.667 16.1584 16.667 17.9993C16.667 19.8403 18.3086 21.3327 20.3337 21.3327Z" fill="#0370C8"/>
<path opacity="0.05" d="M20.3333 14.3333C22.5387 14.3333 24.3333 15.978 24.3333 18C24.3333 20.022 22.5387 21.6667 20.3333 21.6667C18.128 21.6667 16.3333 20.022 16.3333 18C16.3333 15.978 18.128 14.3333 20.3333 14.3333ZM20.3333 14C17.944 14 16 15.7947 16 18C16 20.2053 17.944 22 20.3333 22C22.7227 22 24.6667 20.2053 24.6667 18C24.6667 15.7947 22.7227 14 20.3333 14Z" fill="black"/>
<path opacity="0.07" d="M20.333 14.6673C22.3583 14.6673 23.9997 16.16 23.9997 18.0007C23.9997 19.8413 22.3583 21.334 20.333 21.334C18.3077 21.334 16.6663 19.8413 16.6663 18.0007C16.6663 16.16 18.3077 14.6673 20.333 14.6673ZM20.333 14.334C18.1277 14.334 16.333 15.9787 16.333 18.0007C16.333 20.0227 18.1277 21.6673 20.333 21.6673C22.5383 21.6673 24.333 20.0227 24.333 18.0007C24.333 15.9787 22.5383 14.334 20.333 14.334Z" fill="black"/>
<defs>
<linearGradient id="paint0_linear_3144_1762" x1="0.666997" y1="15.6657" x2="30.445" y2="15.6657" gradientUnits="userSpaceOnUse">
<stop stop-color="#FFA402"/>
<stop offset="1" stop-color="#FF8800"/>
</linearGradient>
</defs>
</svg>
