<svg width="32" height="32" viewBox="0 0 32 32" fill="none" xmlns="http://www.w3.org/2000/svg">
<path d="M16.3333 29.334C23.1448 29.334 28.6667 23.5137 28.6667 16.334C28.6667 9.15428 23.1448 3.33398 16.3333 3.33398C9.52182 3.33398 4 9.15428 4 16.334C4 23.5137 9.52182 29.334 16.3333 29.334Z" fill="#616161"/>
<path d="M18.667 23.2902C24.1898 23.2902 28.667 18.9575 28.667 13.6129C28.667 8.26824 24.1898 3.93555 18.667 3.93555C13.1441 3.93555 8.66699 8.26824 8.66699 13.6129C8.66699 18.9575 13.1441 23.2902 18.667 23.2902Z" fill="#212121"/>
<path d="M17.9996 4.66602C17.9996 4.66602 21.333 5.99935 19.9323 7.18735C19.2236 7.78802 18.323 8.10602 17.483 8.49935C16.5076 8.95602 15.503 9.35268 14.6216 9.99135C13.9556 10.474 13.3263 10.9927 12.8743 11.69C12.333 12.5247 12.0143 13.438 11.9596 14.4353C11.9103 15.3333 12.077 16.196 12.4503 17.0087C12.983 18.1687 13.8476 19.0173 14.9823 19.6013C15.7903 20.0173 16.647 20.21 17.551 20.1887C18.6096 20.164 19.585 19.864 20.4603 19.26C20.957 18.9173 21.353 18.4827 21.7263 18.0067C22.1583 17.456 22.507 16.864 22.8063 16.24C23.179 15.464 23.4596 14.6507 23.7683 13.848C24.005 13.2333 24.2463 12.6153 24.6136 12.0667C25.9996 9.99935 27.333 11.9993 27.333 11.9993C27.333 11.9993 26.6663 9.33268 24.6663 7.33268C22.6663 5.33268 17.9996 4.66602 17.9996 4.66602Z" fill="#3949AB"/>
<path d="M25.3329 13.3328C25.0396 17.0748 24.3016 19.8721 23.2929 21.9501C21.7596 25.7448 17.8936 28.3461 13.4683 27.9621C8.81827 27.5581 5.05294 23.7508 4.69561 19.0968C4.41227 15.4081 6.20294 12.1195 9.02027 10.2615C11.3256 8.56214 14.5583 7.88747 17.3329 7.33281C19.5809 6.88347 20.6916 6.20614 21.1769 5.50681C21.6543 4.81881 21.2843 3.85947 20.5023 3.56081C18.7069 2.87614 16.7356 2.55081 14.6656 2.70281C7.50294 3.22881 1.87027 9.40747 2.00227 16.5881C2.14561 24.4435 8.91761 30.6795 16.9603 29.9401C23.0776 29.3775 28.1443 24.6608 29.1449 18.6001C29.5843 15.9408 29.2296 13.4115 28.3096 11.1721C27.8783 10.1235 26.4009 10.0281 25.8896 11.0401C25.4976 11.8168 25.3703 12.8568 25.3329 13.3328Z" fill="#E0E0E0"/>
</svg>
