<svg width="32" height="32" viewBox="0 0 32 32" fill="none" xmlns="http://www.w3.org/2000/svg">
<path d="M25.4067 7.39159C25.3873 7.25019 25.2637 7.17174 25.1612 7.1632C25.0595 7.15466 23.0662 7.12437 23.0662 7.12437C23.0662 7.12437 21.3991 5.50548 21.2344 5.3408C21.0698 5.17611 20.7481 5.22583 20.6231 5.26312C20.6215 5.26389 20.31 5.36022 19.7857 5.52257C19.6979 5.23826 19.5689 4.88869 19.3848 4.53757C18.7914 3.40497 17.9221 2.80605 16.8718 2.8045C16.8703 2.8045 16.8695 2.8045 16.8679 2.8045C16.7949 2.8045 16.7227 2.81149 16.6497 2.8177C16.6186 2.78042 16.5875 2.74391 16.5549 2.70817C16.0973 2.21878 15.5109 1.9803 14.8078 2.00127C13.4515 2.04011 12.1007 3.01968 11.0054 4.75974C10.2347 5.984 9.64824 7.52211 9.48202 8.71295C7.92449 9.19535 6.83539 9.53247 6.81131 9.54026C6.02518 9.78727 6.00032 9.81135 5.89778 10.5525C5.82165 11.1125 3.76465 27.0186 3.76465 27.0186L21.0029 30L28.4743 28.1426C28.4743 28.1426 25.4261 7.53299 25.4067 7.39159ZM18.9226 5.7898C18.5257 5.91253 18.0743 6.05236 17.5849 6.20384C17.5749 5.51714 17.4933 4.56165 17.1732 3.7359C18.2025 3.93088 18.709 5.09533 18.9226 5.7898ZM16.6831 6.48349C15.7796 6.76313 14.7938 7.06842 13.805 7.37451C14.0831 6.30948 14.6105 5.24913 15.2584 4.55388C15.4992 4.29521 15.8363 4.00701 16.2356 3.84232C16.6108 4.62535 16.6924 5.73387 16.6831 6.48349ZM14.835 2.90393C15.1535 2.89694 15.4215 2.96685 15.6507 3.11755C15.284 3.30788 14.9298 3.58131 14.5973 3.93787C13.7358 4.86228 13.0755 6.29706 12.8122 7.68134C11.9911 7.93535 11.1879 8.18473 10.4483 8.41312C10.9152 6.23414 12.7415 2.96452 14.835 2.90393Z" fill="#95BF47"/>
<path d="M25.1622 7.1632C25.0605 7.15466 23.0671 7.12438 23.0671 7.12438C23.0671 7.12438 21.4001 5.50548 21.2354 5.3408C21.1741 5.27943 21.0909 5.24758 21.0039 5.23438L21.0047 29.9985L28.4753 28.1419C28.4753 28.1419 25.4271 7.53299 25.4077 7.39159C25.3882 7.25019 25.264 7.17174 25.1622 7.1632Z" fill="#5E8E3E"/>
<path d="M16.8628 11.005L15.9951 14.2513C15.9951 14.2513 15.0272 13.8108 13.8798 13.8831C12.1972 13.9895 12.1793 15.0506 12.1965 15.3171C12.2881 16.7689 16.1077 17.0859 16.3221 20.4868C16.4907 23.1621 14.9028 24.9923 12.6152 25.1368C9.8691 25.31 8.35742 23.6904 8.35742 23.6904L8.93927 21.2154C8.93927 21.2154 10.461 22.3636 11.6791 22.2867C12.4745 22.2362 12.7588 21.5891 12.7301 21.1315C12.6105 19.2377 9.50011 19.3495 9.30359 16.2376C9.13811 13.619 10.858 10.9654 14.6527 10.7261C16.1147 10.6321 16.8628 11.005 16.8628 11.005Z" fill="white"/>
</svg>
