<svg width="32" height="32" viewBox="0 0 32 32" fill="none" xmlns="http://www.w3.org/2000/svg">
<path d="M16.6325 14.535V23.5483H14.9512V13.9023L16.6325 14.535Z" fill="white"/>
<path d="M9.91626 13.6948C9.91626 11.3895 11.1729 10.1328 12.6463 10.1328C14.1196 10.1328 14.3276 10.3408 16.0003 11.1815C17.6729 12.0221 18.0976 12.2301 18.9383 12.2301C19.7789 12.2301 20.1949 11.5975 20.1949 10.3408H21.6596C21.8676 12.8541 20.4029 13.9028 18.9296 13.9028C17.4563 13.9028 17.0403 13.6948 15.5756 12.8541C14.1109 12.0135 13.6863 11.8055 12.8456 11.8055C12.0049 11.8055 11.5889 12.4381 11.3809 13.9028L9.91626 13.6948Z" fill="white"/>
<path d="M16 29C8.83267 29 3 23.1673 3 16C3 8.83267 8.83267 3 16 3C23.1673 3 29 8.83267 29 16C29 23.1673 23.1673 29 16 29ZM16 3.84067C9.292 3.84067 3.84067 9.292 3.84067 16C3.84067 22.708 9.292 28.1593 16 28.1593C22.708 28.1593 28.1593 22.708 28.1593 16C28.1593 9.292 22.708 3.84067 16 3.84067Z" fill="white"/>
</svg>
