<svg width="32" height="32" viewBox="0 0 32 32" fill="none" xmlns="http://www.w3.org/2000/svg">
<path d="M16.0003 29.3327C23.3641 29.3327 29.3337 23.3631 29.3337 15.9993C29.3337 8.63555 23.3641 2.66602 16.0003 2.66602C8.63653 2.66602 2.66699 8.63555 2.66699 15.9993C2.66699 23.3631 8.63653 29.3327 16.0003 29.3327Z" fill="#1976D2"/>
<path d="M20.0666 14.2862C20.0666 14.2862 18.9133 17.8996 18.8266 18.2062C18.7933 17.8996 17.9533 11.4062 17.9533 11.4062C15.9866 11.4062 14.94 12.7996 14.3866 14.2862C14.3866 14.2862 12.9866 17.9129 12.8733 18.2196C12.8666 17.9329 12.66 14.3262 12.66 14.3262C12.54 12.5129 10.8866 11.4129 9.54663 11.4129L11.16 21.2529C13.22 21.2462 14.3266 19.8529 14.9066 18.3729C14.9066 18.3729 16.14 15.1729 16.1933 15.0262C16.2066 15.1662 17.08 21.2529 17.08 21.2529C19.14 21.2529 20.2533 19.9462 20.8533 18.5196L23.7333 11.4062C21.6933 11.4063 20.62 12.7996 20.0666 14.2862Z" fill="white"/>
</svg>
