<svg xmlns="http://www.w3.org/2000/svg" width="32" height="32" fill="none"><path stroke="#8D8D8D" stroke-miterlimit="10" stroke-width="1.5" d="M2.667 16H12c2.267 0 4 1.733 4 4s-1.733 4-4 4H4c-.8 0-1.333-.533-1.333-1.333V9.333C2.667 8.533 3.2 8 4 8h6.666c2.267 0 4 1.733 4 4s-1.733 4-4 4h-8Z"/><path stroke="#8D8D8D" stroke-linecap="round" stroke-linejoin="round" stroke-miterlimit="10" stroke-width="1.5" d="M18.666 18.667h10.667c0-2.933-2.4-5.333-5.333-5.333-2.933 0-5.334 2.4-5.334 5.333Zm0 0c0 2.934 2.4 5.334 5.334 5.334h2.267M26 10h-4"/></svg>