<svg xmlns="http://www.w3.org/2000/svg" width="32" height="32" fill="none"><path stroke="#8D8D8D" stroke-linecap="round" stroke-linejoin="round" stroke-miterlimit="10" stroke-width="1.5" d="M24.667 6.387a17.848 17.848 0 0 1-17.107 8.92l-4.226-.387M7.333 25.826a17.848 17.848 0 0 1 17.107-8.92l4.227.387"/><path stroke="#8D8D8D" stroke-linecap="round" stroke-linejoin="round" stroke-miterlimit="10" stroke-width="1.5" d="M16 29.333c7.364 0 13.333-5.97 13.333-13.334 0-7.363-5.97-13.333-13.333-13.333-7.364 0-13.334 5.97-13.334 13.333 0 7.364 5.97 13.334 13.334 13.334Z"/><path stroke="#8D8D8D" stroke-linecap="round" stroke-linejoin="round" stroke-miterlimit="10" stroke-width="1.5" d="m10.173 4 4.24 5.267a30.607 30.607 0 0 1 5.92 12l1.614 6.653"/></svg>